<?xml version="1.0" standalone="no"?>
<!DOCTYPE svg PUBLIC "-//W3C//DTD SVG 20010904//EN"
 "http://www.w3.org/TR/2001/REC-SVG-20010904/DTD/svg10.dtd">
<svg version="1.0" xmlns="http://www.w3.org/2000/svg"
 width="2560.000000pt" height="1121.000000pt" viewBox="0 0 2560.000000 1121.000000"
 preserveAspectRatio="xMidYMid meet">

<g transform="translate(0.000000,1121.000000) scale(0.100000,-0.100000)"
fill="#000000" stroke="none">
<path d="M0 5610 l0 -5600 5605 0 5605 0 0 1115 0 1115 -4482 2 -4483 3 -3
3363 -2 3362 4485 0 4485 0 0 1120 0 1120 -5605 0 -5605 0 0 -5600z"/>
<path d="M13270 10776 c-47 -10 -54 -15 -51 -31 2 -11 7 -273 10 -582 6 -548
7 -562 27 -590 32 -43 81 -65 137 -60 27 2 52 8 57 13 14 14 -10 84 -29 84
-47 1 -46 -16 -52 577 -3 307 -9 568 -13 581 -9 25 -9 24 -86 8z"/>
<path d="M21570 10776 c-47 -10 -54 -15 -51 -31 2 -11 7 -273 10 -582 6 -548
7 -562 27 -590 32 -43 81 -65 137 -60 27 2 52 8 57 13 14 14 -10 84 -29 84
-47 1 -46 -16 -52 577 -3 307 -9 568 -14 581 -8 25 -8 25 -85 8z"/>
<path d="M13693 10755 c-46 -20 -67 -56 -60 -108 11 -83 101 -116 166 -61 59
50 46 140 -24 170 -41 17 -42 17 -82 -1z"/>
<path d="M19323 10756 c-33 -15 -63 -60 -63 -96 0 -84 112 -133 173 -76 86 80
-3 219 -110 172z"/>
<path d="M21123 10756 c-33 -15 -63 -60 -63 -96 0 -84 111 -133 173 -76 86 80
-3 219 -110 172z"/>
<path d="M22003 10763 c-37 -7 -73 -59 -73 -105 0 -86 100 -130 168 -73 58 48
46 142 -22 170 -20 8 -39 14 -43 14 -4 -1 -18 -4 -30 -6z"/>
<path d="M11920 10176 c0 -326 -4 -565 -10 -597 -14 -72 -50 -124 -110 -157
-27 -15 -50 -29 -49 -32 0 -3 15 -23 34 -45 l34 -40 48 24 c80 38 120 77 155
149 l33 67 3 587 3 588 -71 0 -70 0 0 -544z"/>
<path d="M16406 10708 c-2 -7 -25 -260 -50 -563 -26 -302 -49 -565 -52 -582
l-5 -33 71 0 c66 0 70 1 70 23 0 12 16 224 35 471 19 247 35 474 35 503 0 59
14 71 24 21 3 -18 68 -255 143 -525 l137 -493 61 0 61 0 148 523 c81 287 149
527 150 532 2 6 6 -37 10 -95 13 -198 66 -875 72 -917 l5 -43 70 0 70 0 -5 33
c-3 17 -27 285 -53 595 l-47 563 -105 -3 -105 -3 -82 -290 c-72 -251 -156
-562 -179 -660 -7 -27 -9 -23 -21 37 -8 37 -67 257 -132 490 l-118 423 -102 3
c-77 2 -103 -1 -106 -10z"/>
<path d="M15185 10416 c-67 -17 -103 -37 -147 -83 -109 -113 -82 -305 53 -374
22 -11 87 -30 144 -43 58 -13 119 -32 137 -43 68 -39 86 -135 39 -201 -52 -74
-204 -82 -349 -20 l-80 35 -21 -45 c-28 -56 -22 -63 78 -98 140 -49 293 -49
390 0 156 79 200 288 86 402 -45 45 -92 63 -265 104 -107 25 -140 55 -140 126
0 60 24 100 78 125 57 28 151 22 240 -14 l62 -26 25 50 26 49 -45 20 c-54 23
-182 50 -228 49 -18 0 -55 -6 -83 -13z"/>
<path d="M24362 10420 c-135 -29 -222 -128 -222 -255 0 -64 15 -106 55 -153
38 -46 86 -68 212 -97 126 -30 169 -52 189 -100 19 -46 18 -71 -7 -121 -48
-100 -223 -113 -388 -30 l-48 25 -21 -45 c-12 -24 -22 -48 -22 -53 0 -11 109
-55 178 -71 83 -19 208 -15 273 9 119 45 182 133 183 256 0 151 -73 211 -314
261 -70 14 -91 23 -117 50 -28 27 -33 39 -33 78 0 64 23 104 73 127 70 31 141
26 254 -20 l53 -21 25 50 25 50 -36 15 c-106 44 -231 62 -312 45z"/>
<path d="M20553 10409 c-63 -12 -122 -40 -185 -92 -52 -42 -57 -45 -63 -27
-10 33 -55 80 -96 100 -82 43 -194 19 -300 -62 l-46 -36 -12 54 c-7 29 -17 56
-22 60 -9 5 -103 -12 -121 -22 -3 -2 0 -25 8 -51 11 -36 14 -129 14 -425 l0
-378 65 0 65 0 0 325 0 325 60 44 c33 25 76 50 96 56 54 18 121 7 153 -24 l26
-26 3 -350 4 -350 64 0 64 0 0 315 0 316 36 32 c57 50 114 86 153 97 48 13
104 -3 131 -37 19 -25 20 -38 20 -374 l0 -349 70 0 70 0 0 348 c0 285 -3 356
-15 393 -35 102 -132 157 -242 138z"/>
<path d="M12352 10397 l-53 -10 3 -367 3 -367 30 -48 c46 -74 103 -100 220
-100 107 0 170 24 230 85 l38 39 24 -50 c14 -28 36 -57 50 -66 24 -16 26 -15
64 24 l40 39 -25 45 -26 44 0 369 0 369 -62 -7 c-34 -4 -66 -10 -70 -12 -4 -3
-8 -146 -8 -318 l0 -313 -41 -47 c-76 -86 -175 -113 -262 -71 -73 35 -72 27
-75 422 -2 268 -6 353 -15 352 -7 -1 -36 -6 -65 -12z"/>
<path d="M13713 10398 l-53 -10 0 -429 0 -429 70 0 70 0 0 440 c0 413 -1 440
-17 439 -10 -1 -42 -6 -70 -11z"/>
<path d="M14153 10397 l-53 -10 0 -346 c0 -201 4 -361 10 -382 16 -58 51 -101
105 -128 42 -22 62 -26 140 -26 107 0 166 22 231 87 l42 40 6 -29 c8 -34 61
-103 80 -103 6 0 29 18 50 39 l38 39 -22 30 c-31 42 -39 133 -39 496 l-1 298
-57 -7 c-32 -4 -61 -9 -65 -12 -5 -2 -8 -141 -8 -309 0 -247 -3 -310 -14 -333
-18 -33 -74 -84 -118 -107 -44 -23 -124 -22 -171 1 -73 35 -72 27 -75 422 -2
268 -6 353 -15 352 -7 -1 -36 -6 -64 -12z"/>
<path d="M17819 10396 c-50 -14 -150 -58 -187 -82 l-22 -15 30 -44 c17 -25 33
-45 36 -45 3 0 19 9 34 20 89 64 266 95 323 57 46 -30 60 -62 65 -148 l5 -79
-84 0 c-154 0 -288 -43 -361 -114 -103 -100 -105 -284 -3 -374 53 -47 100 -62
191 -62 93 0 132 13 202 65 l60 44 12 -30 c14 -32 73 -89 94 -89 7 0 27 20 44
44 l32 44 -30 30 c-16 17 -31 41 -32 54 -1 13 -3 149 -3 304 l0 280 -30 50
c-23 37 -44 56 -84 77 -49 24 -65 27 -150 26 -53 0 -117 -6 -142 -13z m271
-545 l0 -118 -40 -46 c-77 -88 -207 -108 -278 -43 l-37 34 0 85 c0 71 4 90 21
113 49 66 119 92 252 93 l82 1 0 -119z"/>
<path d="M19395 10405 c-5 -2 -31 -6 -57 -10 l-48 -6 0 -430 0 -429 75 0 75 0
0 440 c0 413 -1 440 -17 439 -10 0 -22 -2 -28 -4z"/>
<path d="M21195 10405 c-5 -2 -31 -6 -57 -10 l-48 -6 0 -430 0 -429 70 0 70 0
0 440 c0 449 0 447 -35 435z"/>
<path d="M22013 10398 l-53 -10 0 -429 0 -429 70 0 70 0 0 440 c0 413 -1 440
-17 439 -10 -1 -42 -6 -70 -11z"/>
<path d="M22555 10391 c-62 -18 -179 -74 -189 -89 -5 -9 50 -92 61 -92 3 0 18
9 33 20 53 38 161 72 230 74 110 2 147 -36 157 -161 l6 -80 -114 -6 c-189 -9
-312 -62 -374 -162 -24 -40 -30 -61 -34 -122 -4 -90 14 -145 65 -196 46 -46
109 -67 199 -67 90 0 148 20 210 71 l48 40 12 -28 c13 -31 79 -93 98 -93 20 1
72 81 61 95 -52 70 -49 48 -49 360 l0 290 -26 50 c-18 35 -39 59 -74 80 -45
28 -56 30 -154 32 -78 2 -122 -2 -166 -16z m285 -535 c0 -114 0 -115 -33 -157
-43 -57 -112 -92 -180 -92 -102 0 -149 49 -150 157 -1 137 90 205 276 206 l87
0 0 -114z"/>
<path d="M23295 10393 c-27 -8 -51 -16 -52 -17 -1 -1 4 -20 12 -41 11 -32 14
-119 15 -422 l0 -383 65 0 65 0 0 324 0 324 49 36 c135 99 262 105 308 15 9
-18 13 -114 13 -361 l0 -338 65 0 65 0 0 358 c0 401 -2 409 -74 469 -98 80
-248 67 -370 -32 l-53 -43 -14 62 c-16 69 -21 72 -94 49z"/>
<path d="M18436 10378 c4 -7 63 -93 132 -192 l124 -178 -162 -239 -161 -239
79 0 79 0 114 180 c63 99 117 180 120 180 4 0 58 -81 120 -180 l114 -180 82 0
82 0 -157 228 c-87 125 -161 232 -165 239 -5 7 40 83 111 190 65 98 122 184
126 191 5 9 -11 12 -71 12 l-78 -1 -80 -139 c-43 -77 -82 -140 -85 -140 -3 0
-42 63 -88 140 l-83 140 -80 0 c-61 0 -78 -3 -73 -12z"/>
<path d="M15760 9995 l0 -65 165 0 165 0 0 65 0 65 -165 0 -165 0 0 -65z"/>
<path d="M24970 9995 l0 -65 165 0 166 0 -3 63 -3 62 -162 3 -163 2 0 -65z"/>
<path d="M22255 8891 c-88 -24 -147 -72 -181 -146 -62 -132 0 -295 134 -351
48 -20 147 -20 195 1 197 82 215 367 29 468 -52 28 -130 41 -177 28z"/>
<path d="M22945 8891 c-116 -30 -192 -117 -202 -231 -15 -156 101 -282 258
-281 146 0 252 108 253 256 1 142 -90 245 -230 259 -27 3 -62 1 -79 -3z"/>
<path d="M18035 8368 c-287 -20 -536 -169 -644 -388 -156 -318 -49 -703 237
-853 89 -47 141 -65 367 -128 99 -27 207 -62 240 -78 127 -59 177 -131 177
-255 -1 -93 -28 -160 -86 -214 -67 -62 -139 -84 -286 -90 -195 -7 -358 32
-564 134 -49 25 -90 43 -91 42 -6 -9 -165 -350 -165 -354 0 -10 186 -92 280
-123 353 -115 732 -106 1005 23 216 103 351 261 406 474 24 94 26 271 4 357
-25 100 -89 217 -153 283 -121 122 -234 178 -533 261 -238 66 -289 85 -338
127 -68 57 -82 162 -33 255 54 103 148 149 305 149 132 0 243 -30 394 -105
l125 -63 105 161 105 161 -28 23 c-42 34 -196 106 -289 137 -172 55 -353 77
-540 64z"/>
<path d="M6530 7433 c0 -963 0 -957 60 -1079 92 -188 266 -303 530 -350 115
-20 350 -20 458 1 276 53 473 200 551 410 36 94 42 273 39 1120 l-3 770 -232
3 -232 2 -3 -852 c-3 -843 -3 -854 -24 -899 -31 -66 -78 -115 -142 -146 -53
-26 -66 -28 -182 -28 -114 0 -130 2 -180 26 -102 48 -154 122 -170 242 -5 39
-10 429 -10 865 l0 792 -230 0 -230 0 0 -877z"/>
<path d="M8630 7170 l0 -1140 220 0 220 0 -5 398 c-8 556 -25 1183 -32 1196
-4 7 -3 8 4 1 5 -5 18 -32 28 -60 55 -153 199 -484 638 -1467 l30 -68 238 0
239 0 0 1140 0 1140 -217 0 -216 0 7 -537 c6 -481 10 -608 31 -923 l5 -85 -58
165 c-32 91 -86 228 -119 305 -54 124 -486 1030 -506 1063 -6 9 -69 12 -258
12 l-249 0 0 -1140z"/>
<path d="M10730 7170 l0 -1140 240 0 240 0 0 1140 0 1140 -240 0 -240 0 0
-1140z"/>
<path d="M11550 8301 c0 -5 173 -521 384 -1147 l384 -1139 208 -3 209 -2 325
942 c179 518 357 1036 397 1150 l72 208 -241 -2 -240 -3 -194 -565 c-190 -553
-282 -835 -304 -935 -7 -27 -14 -57 -17 -65 -2 -8 -17 35 -33 96 -39 154 -104
367 -292 959 l-163 510 -247 3 c-143 1 -248 -1 -248 -7z"/>
<path d="M13780 7170 l0 -1140 665 0 665 0 0 195 0 195 -435 0 -435 0 0 305 0
305 325 0 325 0 0 185 0 185 -325 0 -325 0 0 265 0 265 390 0 c215 0 390 2
390 5 0 8 50 319 56 348 l6 27 -651 0 -651 0 0 -1140z"/>
<path d="M15460 7171 l0 -1141 220 0 220 0 0 476 0 476 25 -6 c111 -28 161
-93 419 -554 73 -130 153 -272 177 -314 l44 -77 268 -1 c147 0 267 3 267 6 0
4 -46 84 -101 178 -272 458 -415 679 -483 746 l-46 44 62 13 c151 31 279 132
357 282 57 110 81 209 81 338 0 329 -169 563 -467 645 -74 21 -104 22 -560 26
l-483 4 0 -1141z m791 755 c87 -16 106 -24 159 -73 53 -47 80 -122 80 -217 0
-93 -21 -162 -65 -213 -66 -77 -166 -103 -401 -103 l-124 0 0 98 c0 55 3 194
7 310 l6 212 131 0 c72 -1 165 -7 207 -14z"/>
<path d="M19347 8303 c-4 -3 -7 -516 -7 -1140 l0 -1133 240 0 240 0 0 1140 0
1140 -233 0 c-129 0 -237 -3 -240 -7z"/>
<path d="M20127 8303 c-4 -3 -7 -89 -7 -190 l0 -183 280 0 280 0 0 -950 0
-950 235 0 235 0 0 950 0 950 272 2 273 3 32 165 c18 91 32 175 33 188 l0 22
-813 0 c-448 0 -817 -3 -820 -7z"/>
<path d="M22445 8298 c-3 -7 -170 -519 -373 -1138 l-368 -1125 235 -3 c129 -1
236 0 238 2 3 2 29 86 59 186 29 100 65 220 79 266 l26 84 336 -2 336 -3 62
-210 c34 -115 70 -236 79 -267 l17 -58 245 0 c193 0 245 3 241 13 -2 6 -163
519 -358 1139 l-354 1128 -248 0 c-189 0 -249 -3 -252 -12z m300 -758 c48
-210 128 -514 150 -572 7 -17 -8 -18 -218 -18 l-225 0 40 133 c21 72 70 258
109 412 74 296 79 316 85 300 2 -5 29 -120 59 -255z"/>
<path d="M23690 8120 l0 -190 280 0 280 0 0 -950 0 -950 230 0 230 0 0 950 0
950 275 0 c151 0 275 1 275 3 0 2 16 82 35 177 19 95 35 179 35 187 0 11 -144
13 -820 13 l-820 0 0 -190z"/>
<path d="M9950 5817 c-49 -16 -133 -102 -148 -153 -48 -162 51 -314 213 -331
194 -20 336 190 247 363 -56 108 -189 160 -312 121z"/>
<path d="M10655 5815 c-50 -20 -112 -78 -136 -130 -25 -55 -25 -147 2 -205
106 -234 445 -178 476 78 11 94 -38 188 -122 238 -58 33 -158 42 -220 19z"/>
<path d="M22293 5166 c-290 -55 -551 -251 -687 -516 -131 -254 -175 -601 -121
-947 54 -340 249 -625 522 -762 304 -152 789 -127 1156 61 l77 40 0 544 0 544
-441 0 -441 0 6 -27 c3 -16 14 -89 26 -163 11 -74 23 -145 25 -157 5 -23 7
-23 180 -23 l175 0 -2 -262 -3 -263 -70 -24 c-98 -33 -259 -35 -361 -3 -179
55 -278 177 -329 402 -23 100 -32 497 -15 641 23 202 83 351 175 438 101 96
198 126 376 119 156 -7 271 -50 415 -153 21 -15 26 -11 138 121 64 76 116 141
116 146 0 17 -128 101 -225 149 -153 75 -266 100 -460 105 -108 2 -183 -1
-232 -10z"/>
<path d="M6522 5138 c3 -7 126 -525 274 -1150 l269 -1138 260 0 261 0 117 593
c64 325 131 678 147 782 17 105 32 195 34 200 1 6 8 -35 15 -90 26 -210 75
-468 185 -965 l113 -515 251 -3 c232 -2 251 -1 256 15 2 10 124 520 271 1133
146 613 268 1123 271 1133 5 16 -11 17 -235 17 l-239 0 -16 -67 c-126 -555
-228 -1084 -292 -1508 l-7 -50 -9 55 c-65 398 -103 604 -194 1048 l-108 522
-250 -2 -250 -3 -103 -465 c-119 -538 -155 -721 -192 -984 l-27 -191 -13 105
c-32 262 -73 471 -244 1250 l-63 285 -243 3 c-193 2 -242 0 -239 -10z"/>
<path d="M11720 4011 l0 -1141 225 0 225 0 0 475 c0 373 3 475 13 475 32 -1
97 -42 139 -89 58 -64 128 -178 303 -491 76 -135 154 -273 174 -307 l36 -63
268 0 c147 0 267 2 267 5 0 7 -252 431 -338 570 -117 187 -207 316 -251 360
l-41 39 62 13 c271 55 451 331 435 667 -14 307 -180 519 -466 599 -72 19 -104
21 -563 25 l-488 4 0 -1141z m804 754 c168 -30 245 -136 234 -323 -7 -121 -62
-208 -154 -247 -52 -21 -172 -35 -310 -35 l-124 0 0 264 c0 145 3 284 6 310
l7 46 131 0 c72 -1 166 -7 210 -15z"/>
<path d="M13740 5145 c0 -5 -86 -324 -96 -358 -6 -18 12 -18 459 -15 l465 3
-53 -75 c-28 -41 -248 -400 -488 -796 l-437 -722 0 -156 0 -156 714 0 715 0 6
23 c4 12 29 92 56 178 27 85 49 159 49 163 0 4 -221 6 -490 4 -270 -1 -490 -2
-490 -1 0 2 20 29 44 60 25 32 238 385 475 785 l431 726 0 171 0 171 -680 0
c-374 0 -680 -2 -680 -5z"/>
<path d="M15550 4010 l0 -1141 543 3 c602 5 590 3 737 75 54 26 95 56 145 107
121 122 175 261 175 450 0 162 -41 286 -124 383 -48 55 -153 124 -246 161 -59
24 -71 32 -55 37 66 24 126 57 167 94 174 155 222 436 111 656 -39 78 -165
196 -254 238 -143 68 -159 69 -706 74 l-493 5 0 -1142z m905 720 c95 -49 151
-174 126 -284 -19 -85 -67 -157 -125 -185 -47 -23 -62 -25 -253 -29 l-203 -5
0 268 0 267 203 -4 c194 -3 205 -4 252 -28z m23 -894 c23 -10 60 -38 82 -63
52 -59 75 -128 74 -223 0 -127 -68 -242 -169 -287 -33 -14 -76 -18 -252 -21
l-213 -4 0 304 c0 168 3 308 7 312 5 4 102 6 218 4 175 -3 217 -7 253 -22z"/>
<path d="M17514 5136 c-3 -7 -3 -407 -1 -887 3 -785 5 -881 21 -938 29 -109
74 -189 152 -268 159 -159 425 -233 762 -211 138 9 244 37 361 94 75 37 110
62 170 123 88 87 123 148 151 257 19 74 20 113 20 961 l0 883 -230 0 -229 0
-3 -847 c-3 -930 0 -874 -65 -966 -23 -33 -49 -54 -98 -78 -59 -29 -80 -34
-162 -37 -179 -8 -284 43 -345 165 l-33 68 -3 847 -3 848 -230 0 c-186 0 -231
-3 -235 -14z"/>
<path d="M19680 4011 l0 -1141 225 0 225 0 0 476 0 476 28 -7 c99 -25 154
-100 429 -590 77 -137 153 -272 170 -300 l29 -50 272 -3 271 -2 -81 137 c-293
495 -444 731 -513 798 l-43 41 66 12 c176 34 330 182 398 383 31 93 45 222 33
323 -31 284 -190 476 -459 557 -72 22 -93 23 -562 27 l-488 4 0 -1141z m848
745 c62 -20 125 -73 154 -130 41 -81 40 -233 -2 -315 -28 -55 -91 -108 -152
-126 -36 -11 -109 -18 -225 -22 l-173 -6 0 313 0 313 173 -6 c120 -3 188 -10
225 -21z"/>
<path d="M9572 4238 c3 -841 5 -907 22 -958 52 -158 159 -281 309 -355 113
-56 215 -82 374 -97 396 -36 738 106 868 362 61 120 58 82 62 1058 l4 892
-235 0 -235 0 -3 -852 -3 -853 -23 -47 c-63 -128 -223 -196 -398 -168 -129 20
-214 82 -256 188 l-22 57 -4 838 -4 837 -229 0 -230 0 3 -902z"/>
</g>
</svg>
