<?xml version="1.0" standalone="no"?>
<!DOCTYPE svg PUBLIC "-//W3C//DTD SVG 20010904//EN"
 "http://www.w3.org/TR/2001/REC-SVG-20010904/DTD/svg10.dtd">
<svg version="1.0" xmlns="http://www.w3.org/2000/svg"
 width="1024.000000pt" height="1024.000000pt" viewBox="0 0 1024.000000 1024.000000"
 preserveAspectRatio="xMidYMid meet">

<g transform="translate(0.000000,1024.000000) scale(0.100000,-0.100000)"
fill="#000000" stroke="none">
<path d="M4955 10180 c-16 -7 -17 -9 -3 -9 9 -1 20 4 23 9 7 11 7 11 -20 0z"/>
<path d="M5098 10183 c34 -2 88 -2 120 0 31 2 3 3 -63 3 -66 0 -92 -1 -57 -3z"/>
<path d="M5395 10180 c-25 -6 -19 -8 30 -9 57 -2 199 -28 163 -30 -10 -1 -18
-4 -18 -8 0 -5 64 -9 143 -9 189 -2 337 -12 422 -29 39 -8 97 -19 130 -25 121
-23 191 -39 250 -55 33 -9 80 -21 105 -27 25 -6 50 -14 55 -18 6 -4 26 -11 45
-15 37 -8 263 -87 315 -110 17 -8 53 -23 80 -33 96 -37 357 -178 375 -202 3
-4 12 -11 22 -16 9 -5 36 -28 61 -51 25 -23 81 -67 126 -97 63 -43 80 -51 78
-36 -2 10 -14 28 -28 39 -13 11 -18 20 -11 21 7 0 10 4 7 10 -3 6 1 7 9 4 9
-3 14 -10 11 -14 -10 -16 13 -20 25 -4 7 8 16 11 19 7 3 -4 22 -16 41 -25 42
-21 68 -38 89 -58 9 -8 44 -35 78 -60 34 -24 59 -48 57 -52 -3 -4 0 -8 6 -8 6
0 17 -6 24 -12 7 -7 39 -35 71 -63 32 -27 84 -74 116 -102 32 -29 63 -53 68
-53 19 0 409 -397 482 -491 15 -19 69 -88 121 -154 51 -66 107 -140 123 -165
17 -25 36 -51 43 -58 19 -20 72 -100 72 -108 0 -4 11 -21 24 -38 12 -17 40
-62 61 -101 20 -38 43 -77 49 -85 12 -14 38 -62 80 -150 10 -19 21 -42 26 -50
6 -8 16 -28 23 -45 8 -16 31 -66 52 -110 84 -181 126 -287 228 -585 3 -8 12
-42 21 -75 9 -33 21 -73 26 -90 24 -79 89 -393 96 -465 3 -25 7 -56 11 -70 3
-14 7 -36 9 -50 7 -69 9 -78 16 -74 12 8 9 88 -6 167 -8 40 -18 101 -21 137
-4 36 -11 70 -15 75 -4 6 -11 35 -15 65 -4 30 -11 60 -15 65 -4 6 -10 30 -14
54 -4 25 -13 65 -20 90 -8 25 -22 75 -31 111 -27 100 -56 193 -66 212 -5 10
-9 23 -9 30 0 7 -6 24 -13 38 -7 14 -21 50 -31 80 -10 30 -24 69 -31 85 -8 17
-26 59 -40 95 -42 104 -53 127 -131 282 -227 452 -496 822 -870 1198 -127 128
-256 245 -309 282 -5 4 -28 22 -50 41 -48 41 -203 158 -275 207 -28 19 -63 45
-77 57 -15 12 -30 20 -34 17 -4 -2 -9 -1 -11 4 -1 4 -20 18 -41 31 -32 20 -40
21 -55 9 -15 -12 -16 -11 -3 5 8 9 12 19 10 21 -64 49 -567 301 -714 359 -103
40 -243 87 -330 112 -33 9 -71 21 -85 25 -14 5 -74 21 -135 35 -60 14 -126 30
-145 35 -57 16 -297 50 -485 69 -127 13 -424 20 -460 11z m2325 -650 c0 -5 -5
-10 -11 -10 -5 0 -7 5 -4 10 3 6 8 10 11 10 2 0 4 -4 4 -10z m-25 -30 c4 -6
10 -8 15 -5 5 3 12 0 16 -6 4 -8 3 -9 -4 -5 -7 4 -12 2 -12 -5 0 -9 -4 -7 -12
3 -7 9 -20 18 -28 21 -12 4 -12 6 2 6 9 1 20 -4 23 -9z m86 -33 c-10 -9 -11
-8 -5 6 3 10 9 15 12 12 3 -3 0 -11 -7 -18z"/>
<path d="M4640 10169 c-30 -4 -83 -10 -117 -14 -35 -4 -63 -12 -63 -18 0 -9
58 -6 155 8 34 5 137 13 238 19 38 2 71 7 74 10 9 8 -221 5 -287 -5z"/>
<path d="M4398 10123 c12 -2 30 -2 40 0 9 3 -1 5 -23 4 -22 0 -30 -2 -17 -4z"/>
<path d="M5498 10123 c7 -3 16 -2 19 1 4 3 -2 6 -13 5 -11 0 -14 -3 -6 -6z"/>
<path d="M4323 10113 c9 -2 23 -2 30 0 6 3 -1 5 -18 5 -16 0 -22 -2 -12 -5z"/>
<path d="M4233 10093 c9 -2 23 -2 30 0 6 3 -1 5 -18 5 -16 0 -22 -2 -12 -5z"/>
<path d="M4173 10083 c9 -2 23 -2 30 0 6 3 -1 5 -18 5 -16 0 -22 -2 -12 -5z"/>
<path d="M4096 10071 c-3 -5 -31 -12 -61 -16 -30 -3 -55 -10 -55 -14 0 -3 -24
-12 -52 -18 -74 -15 -84 -18 -174 -48 -71 -24 -106 -37 -169 -65 -11 -5 -65
-27 -120 -50 -104 -43 -178 -77 -305 -140 -320 -160 -740 -446 -951 -650 -9
-8 -31 -28 -50 -44 -191 -165 -355 -336 -514 -536 -190 -241 -270 -356 -413
-596 -90 -152 -202 -369 -202 -392 0 -6 -4 -12 -9 -12 -5 0 -12 -13 -16 -30
-4 -16 -11 -32 -16 -35 -12 -8 -12 -25 1 -25 6 0 10 6 10 14 0 8 9 22 21 30
12 8 18 19 15 24 -3 5 1 15 9 22 14 12 19 7 16 -13 -1 -5 3 -6 9 -2 8 5 8 11
0 20 -14 17 -6 45 26 92 21 32 29 35 25 11 0 -5 3 -8 7 -8 10 0 36 89 33 110
-2 8 0 12 4 8 4 -4 21 21 38 55 17 34 52 97 79 139 26 43 48 82 48 88 0 5 4
10 8 10 5 0 14 12 21 28 12 26 159 252 171 262 3 3 30 37 60 75 30 39 63 79
73 90 11 11 40 49 65 85 26 36 49 67 52 70 3 3 33 39 67 80 73 89 163 177 218
214 22 14 89 72 149 129 106 99 202 179 340 282 37 28 73 56 81 63 19 17 264
172 272 172 3 0 14 6 22 14 22 19 124 75 266 145 279 137 553 249 735 301 41
12 84 25 95 30 11 5 27 9 35 9 8 0 29 2 45 5 17 2 34 5 38 5 5 1 5 6 2 11 -8
12 -42 13 -49 1z"/>
<path d="M5139 10009 l-24 -21 25 7 c14 4 42 11 62 17 34 9 44 7 109 -27 39
-20 68 -31 64 -25 -4 7 -35 25 -69 41 -74 35 -133 38 -167 8z"/>
<path d="M5578 10013 c6 -2 18 -2 25 0 6 3 1 5 -13 5 -14 0 -19 -2 -12 -5z"/>
<path d="M5636 10001 c5 -5 23 -13 39 -16 l30 -7 -29 16 c-31 18 -56 22 -40 7z"/>
<path d="M4980 9980 c-8 -5 -10 -10 -5 -10 6 0 17 5 25 10 8 5 11 10 5 10 -5
0 -17 -5 -25 -10z"/>
<path d="M4644 9959 c-3 -5 6 -9 20 -9 31 0 34 6 6 13 -11 3 -23 1 -26 -4z"/>
<path d="M6080 9957 c-42 -11 -36 -12 90 -18 74 -4 176 -14 225 -23 159 -28
308 -62 337 -77 22 -11 38 -12 38 -1 0 21 -337 101 -515 121 -105 13 -115 13
-175 -2z"/>
<path d="M5768 9953 c6 -2 18 -2 25 0 6 3 1 5 -13 5 -14 0 -19 -2 -12 -5z"/>
<path d="M4358 9943 c6 -2 18 -2 25 0 6 3 1 5 -13 5 -14 0 -19 -2 -12 -5z"/>
<path d="M5220 9940 c0 -5 5 -10 11 -10 5 0 7 5 4 10 -3 6 -8 10 -11 10 -2 0
-4 -4 -4 -10z"/>
<path d="M5820 9940 c16 -11 88 -14 77 -4 -4 4 -26 9 -49 11 -31 3 -39 1 -28
-7z"/>
<path d="M4310 9920 c-8 -5 -10 -10 -5 -10 6 0 17 5 25 10 8 5 11 10 5 10 -5
0 -17 -5 -25 -10z"/>
<path d="M5258 9923 c7 -3 16 -2 19 1 4 3 -2 6 -13 5 -11 0 -14 -3 -6 -6z"/>
<path d="M5470 9910 c25 -12 52 -28 61 -36 9 -8 70 -28 135 -44 66 -16 135
-33 154 -39 41 -13 64 -13 35 -1 -15 7 -10 9 23 9 23 1 42 -3 42 -8 0 -5 20
-9 45 -9 56 -1 65 -6 58 -32 -6 -21 -39 -28 -45 -8 -2 6 -11 9 -18 6 -11 -4
-7 -9 13 -18 15 -7 27 -20 27 -29 0 -27 39 20 46 56 6 29 4 32 -39 51 -25 11
-59 23 -76 27 -17 3 -33 11 -36 16 -4 5 -26 9 -51 9 -40 0 -138 16 -314 51
-101 20 -106 20 -60 -1z m396 -74 c7 -1 17 -6 21 -10 6 -5 -59 -3 -85 3 -2 1
0 6 3 11 4 6 16 8 27 4 11 -3 27 -7 34 -8z"/>
<path d="M5938 9923 c12 -2 32 -2 45 0 12 2 2 4 -23 4 -25 0 -35 -2 -22 -4z"/>
<path d="M4148 9913 c6 -2 18 -2 25 0 6 3 1 5 -13 5 -14 0 -19 -2 -12 -5z"/>
<path d="M5370 9899 c0 -5 4 -9 9 -9 5 0 11 -9 14 -20 6 -24 62 -28 70 -6 8
20 -2 27 -31 19 -16 -4 -23 -2 -19 4 4 6 -4 13 -18 15 -14 3 -25 1 -25 -3z"/>
<path d="M4244 9864 c-19 -19 -39 -45 -45 -57 -10 -19 -9 -19 11 3 13 14 37
40 54 58 16 17 26 32 22 32 -5 0 -24 -16 -42 -36z"/>
<path d="M4541 9884 c0 -11 3 -14 6 -6 3 7 2 16 -1 19 -3 4 -6 -2 -5 -13z"/>
<path d="M5272 9865 c-11 -12 -10 -15 3 -15 8 0 15 7 15 15 0 18 -2 18 -18 0z"/>
<path d="M4780 9858 c0 -5 32 -8 70 -8 39 0 70 3 70 8 0 4 -31 7 -70 7 -38 0
-70 -3 -70 -7z"/>
<path d="M3920 9835 c-9 -10 -9 -15 -1 -15 6 0 11 4 11 9 0 5 8 12 18 14 14 4
14 5 1 6 -9 0 -22 -6 -29 -14z"/>
<path d="M4395 9823 c-28 -7 -43 -23 -22 -23 21 0 23 -19 3 -26 -8 -3 -23 -18
-32 -32 -15 -22 -11 -21 26 11 24 20 47 37 52 37 4 0 8 9 8 20 0 21 -1 21 -35
13z"/>
<path d="M6698 9726 l-97 -101 -33 14 c-121 49 -485 164 -502 157 -6 -2 -3 -5
7 -5 9 -1 25 -6 35 -11 16 -9 63 -25 360 -120 89 -29 102 -36 102 -55 0 -13
-7 -28 -15 -35 -18 -15 -124 -152 -170 -218 -17 -24 -45 -64 -63 -90 -18 -26
-79 -118 -135 -205 -55 -87 -109 -163 -119 -168 -13 -7 -33 -2 -75 19 -32 16
-74 35 -93 42 -19 7 -39 17 -44 21 -13 11 181 201 345 339 20 16 46 30 59 30
19 0 20 2 6 15 -8 8 -18 15 -21 15 -8 0 -97 70 -107 85 -4 6 -8 -2 -8 -17 0
-23 -4 -28 -24 -28 -14 0 -31 -6 -38 -14 -8 -7 -24 -17 -36 -20 -12 -4 -22
-11 -22 -16 0 -5 20 1 44 14 68 36 81 37 131 5 25 -16 45 -31 45 -33 0 -2 -30
-23 -66 -46 -36 -23 -125 -100 -197 -171 -125 -124 -155 -144 -182 -121 -18
15 -65 32 -65 23 0 -5 13 -12 29 -16 15 -3 34 -17 41 -30 11 -21 9 -27 -26
-62 -22 -21 -61 -65 -89 -98 -83 -100 -241 -279 -258 -293 -13 -11 -36 -3
-153 54 -76 36 -144 72 -151 79 -7 7 -43 30 -80 51 -37 21 -72 42 -78 46 -5 5
-38 27 -72 49 -35 22 -63 44 -63 49 0 5 19 22 43 37 23 16 74 51 112 78 39 26
116 72 172 102 97 50 125 75 38 33 -22 -11 -43 -19 -47 -20 -7 0 -90 -49 -167
-97 -20 -13 -43 -26 -51 -30 -8 -3 -37 -24 -64 -45 -27 -21 -54 -38 -61 -38
-15 0 -113 75 -184 140 -48 45 -91 64 -91 42 0 -5 -26 -22 -57 -37 -92 -45
-239 -132 -346 -204 -54 -36 -106 -70 -115 -76 -9 -5 -36 -25 -61 -42 -24 -18
-52 -33 -61 -33 -9 0 -46 32 -81 72 -35 40 -79 88 -97 108 -18 19 -31 41 -30
48 4 18 451 252 482 252 6 0 16 4 22 9 15 14 141 61 163 61 18 0 61 31 61 44
0 2 -8 6 -19 9 -19 5 -121 132 -121 151 0 20 22 36 49 37 15 0 35 5 46 10 14
6 1 8 -41 4 -46 -4 -64 -2 -73 9 -21 25 -151 47 -151 26 0 -5 24 -10 53 -10
43 0 58 -5 75 -23 12 -13 22 -33 22 -45 0 -12 4 -22 9 -22 5 0 14 -13 21 -29
6 -16 27 -47 46 -68 51 -58 55 -54 -96 -113 -82 -32 -86 -33 -205 -91 -60 -29
-132 -66 -158 -81 -106 -62 -178 -98 -196 -98 -15 0 -91 94 -91 113 0 11 -43
57 -53 57 -10 0 26 -62 62 -106 63 -76 60 -71 45 -92 -7 -10 -46 -39 -85 -63
-40 -24 -87 -53 -105 -64 -18 -11 -54 -33 -81 -49 -81 -49 -234 -157 -303
-213 -77 -64 -68 -69 -164 90 -60 97 -79 147 -58 147 5 0 78 45 163 101 85 55
175 112 201 125 26 13 50 29 54 35 3 6 30 22 58 35 l51 25 -39 -7 c-22 -3 -54
-16 -71 -30 -33 -25 -55 -31 -55 -15 0 5 -9 11 -20 14 -22 6 -27 -12 -8 -31
14 -14 19 -10 -77 -68 -44 -26 -81 -52 -83 -56 -2 -4 -8 -8 -12 -8 -5 0 -46
-25 -91 -55 -60 -40 -85 -52 -94 -45 -24 20 -83 236 -69 250 12 11 132 78 167
93 15 6 27 15 27 19 0 11 -18 10 -25 -2 -3 -5 -18 -10 -32 -10 -14 0 -41 -13
-60 -30 -19 -17 -47 -33 -63 -36 -31 -7 -82 -64 -55 -64 8 0 17 -12 21 -27 3
-16 17 -59 31 -98 43 -120 44 -115 -34 -167 -132 -88 -318 -239 -474 -386
l-56 -52 -16 37 c-41 98 -66 208 -73 329 -9 136 -2 164 51 221 25 26 45 49 45
52 0 6 -78 -66 -96 -88 -22 -27 -35 -132 -25 -200 6 -36 8 -68 5 -73 -3 -5 -2
-14 3 -21 5 -7 18 -41 28 -77 9 -36 26 -89 36 -118 11 -29 19 -61 19 -72 0
-10 -45 -63 -106 -122 -58 -57 -172 -178 -252 -270 -80 -93 -149 -168 -154
-168 -4 0 -8 -5 -8 -10 0 -6 -26 -45 -58 -88 -71 -93 -203 -294 -226 -342 -17
-37 -11 -29 39 48 98 151 218 323 229 329 7 5 37 37 66 73 30 36 74 88 99 115
25 28 80 89 121 135 112 127 242 260 254 260 11 0 67 -80 79 -113 4 -9 31 -53
62 -97 30 -43 55 -86 55 -95 0 -8 -17 -30 -37 -48 -43 -38 -240 -267 -333
-387 -36 -47 -82 -102 -102 -123 -21 -22 -38 -43 -38 -47 0 -4 -39 -65 -86
-136 -100 -151 -228 -363 -222 -369 3 -3 15 14 28 38 24 42 128 207 152 240 7
9 38 57 68 107 30 49 60 91 67 94 7 3 45 -32 85 -77 95 -107 241 -255 236
-241 -3 11 -105 125 -247 276 -29 32 -51 63 -48 70 5 12 117 155 245 313 92
112 232 265 244 265 6 0 36 -28 67 -62 30 -35 95 -104 143 -154 48 -49 88 -95
88 -102 0 -6 -18 -32 -41 -58 -68 -79 -222 -275 -274 -349 -49 -70 -144 -196
-156 -205 -3 -3 -9 -18 -13 -34 -4 -17 -20 -46 -35 -65 -41 -52 -145 -228
-214 -361 -84 -163 -117 -220 -128 -220 -20 0 -7 -29 24 -53 17 -14 50 -42 72
-62 22 -20 113 -95 203 -167 113 -91 162 -137 163 -152 0 -12 3 -15 6 -9 5 13
29 5 57 -19 65 -53 236 -164 397 -257 47 -27 91 -57 98 -65 8 -9 20 -16 27
-16 7 0 48 -21 91 -46 43 -25 111 -64 151 -86 130 -70 137 -74 148 -97 7 -13
14 -19 18 -13 17 28 -100 109 -344 238 -19 11 -39 25 -43 32 -4 6 -16 12 -26
12 -10 0 -33 10 -52 23 -19 12 -65 41 -104 65 -171 102 -395 253 -395 265 0 9
200 402 269 527 23 41 49 89 58 107 9 18 22 34 29 37 7 3 41 -17 76 -43 77
-58 234 -161 345 -226 46 -26 88 -54 93 -61 8 -9 -13 -62 -83 -206 -87 -178
-128 -264 -194 -406 -13 -29 -23 -58 -21 -64 4 -10 46 71 108 207 18 39 64
135 102 215 39 80 79 164 89 188 10 23 22 42 27 42 4 0 41 -16 81 -36 40 -20
75 -33 78 -31 7 8 -70 55 -101 63 -43 10 -49 36 -21 78 14 20 25 39 25 41 0 3
29 54 65 114 36 60 65 112 65 115 0 3 27 51 60 107 33 55 60 103 60 106 0 2
13 24 30 48 16 24 34 55 40 69 13 34 31 33 99 -8 87 -53 329 -184 354 -192 54
-17 122 -62 128 -85 4 -13 8 -19 9 -14 6 35 5 55 -3 55 -5 0 -21 8 -35 19 -31
21 -128 73 -337 181 -94 49 -154 85 -160 99 -5 12 -16 19 -23 16 -7 -2 -60 26
-118 63 -58 37 -153 97 -212 134 -58 37 -117 78 -129 91 l-24 23 30 40 c82
109 130 169 238 297 65 77 141 166 170 196 l52 56 35 -19 c20 -11 36 -23 36
-28 0 -5 4 -7 8 -4 5 3 20 -5 34 -17 14 -12 36 -29 48 -37 12 -8 28 -20 34
-25 6 -6 40 -25 76 -44 98 -50 144 -77 148 -89 1 -5 -19 -39 -45 -75 -26 -35
-55 -74 -63 -86 -137 -197 -250 -367 -250 -376 0 -29 40 23 228 300 76 112
139 195 156 206 5 4 31 -6 58 -22 28 -16 111 -61 186 -99 76 -39 142 -74 147
-78 6 -4 17 -11 25 -15 8 -4 30 -16 49 -28 38 -23 32 -26 71 40 8 14 31 51 51
81 96 147 187 289 209 325 13 22 27 42 30 45 8 7 41 59 61 95 21 38 44 43 80
16 15 -12 32 -21 36 -21 4 0 35 -14 68 -31 65 -33 112 -47 192 -58 42 -6 50
-4 41 6 -6 7 -30 13 -53 13 -26 0 -48 6 -55 15 -7 8 -31 20 -54 25 -22 6 -79
29 -125 51 -76 36 -83 42 -78 65 l4 25 -23 -22 c-21 -20 -26 -21 -41 -7 -10 8
-25 18 -33 22 -96 42 -315 167 -315 179 0 15 140 170 287 318 42 43 73 80 70
84 -3 3 6 17 21 30 27 25 43 33 32 15 -3 -6 1 -7 9 -4 8 3 18 14 21 24 14 44
27 42 182 -36 177 -88 188 -97 152 -128 -57 -48 -238 -290 -226 -303 3 -2 13
8 24 22 38 55 173 222 217 270 25 27 46 52 46 56 0 5 10 19 23 32 12 14 43 49
68 78 141 166 231 269 266 309 l40 45 34 -17 c19 -10 64 -31 102 -47 37 -17
70 -37 73 -46 3 -8 -6 -34 -20 -57 -15 -24 -30 -50 -35 -58 -31 -50 -111 -193
-133 -235 -61 -121 -81 -155 -92 -155 -6 0 -36 12 -66 28 -70 35 -157 69 -195
77 -27 5 -25 4 10 -14 22 -11 76 -34 120 -52 44 -18 92 -44 106 -58 16 -17 34
-25 49 -23 12 2 32 -1 44 -7 36 -18 96 -30 101 -21 8 12 -48 40 -79 40 -61 0
-72 29 -32 83 20 28 48 76 169 297 80 147 101 172 125 148 9 -9 12 -9 12 0 0
7 -4 12 -10 12 -18 0 -11 28 19 72 15 24 55 83 87 131 32 49 74 112 91 140 18
29 41 59 50 67 10 9 25 28 33 42 29 52 202 279 216 285 8 3 48 -11 89 -31 40
-20 77 -36 82 -36 4 0 98 -45 210 -100 111 -55 207 -100 213 -100 5 0 10 -4
10 -10 0 -5 6 -10 13 -10 6 0 32 -14 57 -30 50 -33 86 -40 76 -14 -3 9 -6 18
-6 20 0 2 -9 4 -19 4 -11 0 -22 4 -26 9 -3 5 -19 12 -35 16 -17 4 -30 10 -30
15 0 4 -12 11 -27 15 -16 4 -53 21 -83 39 -30 19 -102 56 -160 83 -114 55
-126 60 -244 107 -44 17 -81 36 -83 43 -5 15 155 183 174 183 15 0 110 -44
188 -87 156 -87 303 -219 348 -315 15 -31 32 -60 37 -63 16 -10 12 3 -19 69
-33 68 -145 195 -212 241 -24 17 -46 33 -49 36 -6 6 -129 79 -135 79 -2 0 -37
16 -78 35 -41 19 -81 34 -88 34 -8 -1 -58 -47 -111 -103z m-2049 -761 c29 -22
68 -54 88 -71 l36 -31 -42 -29 c-46 -32 -220 -158 -236 -171 -6 -4 -44 -35
-85 -68 -84 -67 -95 -76 -163 -134 -27 -23 -53 -41 -58 -41 -6 0 -31 16 -57
35 -63 47 -61 45 -117 90 -107 85 -124 108 -87 122 9 4 22 11 27 16 54 47 422
277 444 277 5 0 11 3 13 8 2 4 32 22 68 39 74 36 65 38 169 -42z m-961 -127
c20 -24 65 -73 99 -109 35 -36 63 -73 63 -81 0 -9 -15 -23 -32 -31 -18 -9 -40
-25 -48 -36 -8 -12 -19 -21 -25 -21 -10 0 -204 -142 -214 -158 -3 -4 -36 -33
-73 -64 -36 -31 -75 -65 -85 -75 -57 -54 -103 -93 -111 -93 -5 0 -52 43 -103
96 -52 53 -109 110 -126 127 -18 17 -33 36 -33 42 0 16 137 122 285 222 148
99 346 223 357 223 4 0 25 -19 46 -42z m1232 -75 c71 -48 130 -93 130 -99 0
-7 -9 -16 -21 -19 -12 -4 -18 -13 -15 -20 3 -8 0 -12 -7 -10 -13 5 -89 -65
-221 -205 -194 -206 -228 -240 -238 -240 -5 0 -28 14 -49 31 -22 17 -44 27
-50 23 -8 -4 -9 -3 -5 4 8 13 -30 36 -44 27 -6 -4 -9 -1 -8 6 3 11 -143 119
-177 132 -13 5 24 47 40 47 7 0 19 7 26 16 14 17 200 168 314 254 39 30 72 56
75 60 3 3 26 19 52 35 27 17 48 33 48 38 0 16 25 3 150 -80z m-2122 -45 c23
-29 152 -259 152 -272 0 -7 -14 -24 -31 -37 -97 -74 -252 -207 -379 -328 -80
-75 -150 -140 -157 -144 -20 -12 -183 248 -183 293 0 33 340 331 496 435 28
19 56 41 63 49 16 19 25 20 39 4z m1127 -124 c22 -20 56 -48 75 -62 19 -14 50
-39 68 -56 17 -16 32 -26 32 -21 0 4 14 -6 30 -23 36 -38 37 -43 8 -62 -13 -8
-133 -124 -268 -257 -135 -134 -253 -243 -262 -243 -9 0 -23 8 -30 18 -7 10
-49 47 -94 82 -175 141 -203 165 -201 177 2 13 286 261 387 338 36 27 92 71
124 97 33 27 67 48 75 48 9 0 34 -16 56 -36z m-813 -306 c70 -73 128 -138 128
-145 0 -6 -12 -21 -27 -33 -103 -80 -337 -317 -468 -472 -22 -26 -45 -50 -52
-52 -12 -5 -255 249 -291 303 -15 22 -15 25 9 43 13 11 87 79 164 152 172 163
202 189 290 255 39 29 74 59 78 67 17 30 46 10 169 -118z m1116 71 c12 -11 27
-17 32 -14 6 4 7 -1 3 -11 -5 -13 -3 -16 10 -11 9 3 17 2 17 -4 0 -6 5 -7 10
-4 6 4 9 2 8 -3 -2 -6 1 -10 5 -10 5 -1 17 -11 28 -23 10 -12 19 -19 19 -15 0
4 7 0 16 -8 8 -9 22 -16 30 -16 8 0 14 -3 14 -8 0 -4 15 -15 33 -25 54 -30 79
-55 70 -70 -4 -8 -40 -50 -80 -93 -64 -70 -113 -130 -320 -387 -30 -38 -61
-71 -69 -74 -7 -2 -39 13 -71 35 -72 48 -232 150 -295 186 -27 16 -48 33 -48
40 0 6 93 104 208 218 266 264 323 318 343 318 8 0 25 -9 37 -21z m406 -262
c28 -18 109 -62 180 -97 70 -35 130 -70 133 -77 3 -7 -9 -31 -25 -55 -59 -86
-161 -247 -252 -396 -51 -85 -100 -156 -108 -160 -9 -3 -38 7 -66 22 -28 15
-131 69 -229 119 -99 50 -181 97 -184 104 -3 8 17 39 44 71 61 70 288 343 362
435 34 42 62 67 74 67 11 0 43 -15 71 -33z m-1300 -29 c33 -29 64 -57 67 -61
3 -5 17 -16 31 -25 52 -35 158 -124 158 -134 0 -5 -39 -55 -88 -111 -94 -110
-262 -316 -332 -410 -24 -32 -51 -62 -61 -68 -20 -10 -24 -7 -234 165 -55 45
-115 92 -132 105 -18 12 -33 26 -33 31 0 16 246 284 367 400 154 148 165 158
182 159 7 1 41 -23 75 -51z m-532 -614 c57 -47 142 -115 191 -151 48 -36 87
-72 87 -81 0 -8 -31 -56 -68 -106 -82 -110 -208 -298 -282 -421 -62 -104 -75
-119 -92 -109 -54 32 -384 302 -406 333 -11 15 -6 27 36 82 27 35 80 107 118
159 158 216 289 380 306 380 4 0 54 -39 110 -86z m390 -301 c82 -58 188 -126
289 -184 43 -24 82 -52 88 -62 14 -21 16 -17 -99 -202 -47 -77 -90 -147 -93
-155 -4 -8 -18 -33 -30 -55 -37 -64 -109 -197 -129 -237 -10 -21 -23 -38 -29
-38 -6 0 -30 14 -54 30 -24 17 -47 30 -50 30 -4 0 -25 13 -48 29 -112 76 -311
207 -333 219 -47 26 -45 31 201 395 77 114 149 223 160 242 12 22 28 35 40 35
11 0 50 -21 87 -47z m-932 -284 c68 -60 86 -75 180 -153 52 -43 118 -94 147
-113 29 -18 53 -40 53 -48 0 -8 -15 -38 -34 -67 -57 -91 -162 -284 -240 -443
-42 -85 -79 -156 -84 -159 -19 -12 -452 346 -452 374 0 4 16 32 35 61 19 30
35 56 35 60 0 4 20 42 43 85 24 44 61 111 82 149 21 39 57 99 80 135 23 36 54
84 69 108 14 23 32 42 39 42 6 0 28 -14 47 -31z"/>
<path d="M3875 9810 c-3 -5 -2 -10 4 -10 5 0 13 5 16 10 3 6 2 10 -4 10 -5 0
-13 -4 -16 -10z"/>
<path d="M4910 9779 c-8 -4 -50 -18 -93 -32 -71 -21 -79 -27 -97 -62 -23 -45
-26 -95 -7 -95 21 0 27 11 16 31 -7 15 -6 17 6 13 8 -4 15 -2 15 2 0 5 20 20
45 33 37 20 44 27 39 46 -5 20 0 24 40 34 24 6 48 16 51 22 10 14 3 18 -15 8z
m-97 -63 c8 -20 -4 -28 -21 -13 -13 9 -14 9 -8 0 4 -7 2 -13 -3 -13 -13 0 -13
3 -5 24 8 20 30 21 37 2z"/>
<path d="M5885 9770 c-3 -5 -1 -10 4 -10 6 0 11 5 11 10 0 6 -2 10 -4 10 -3 0
-8 -4 -11 -10z"/>
<path d="M5524 9762 c-6 -4 -8 -16 -4 -26 6 -19 7 -19 12 1 5 18 15 23 54 26
l49 3 -50 2 c-27 1 -55 -2 -61 -6z"/>
<path d="M4028 9753 c7 -3 16 -2 19 1 4 3 -2 6 -13 5 -11 0 -14 -3 -6 -6z"/>
<path d="M4598 9746 c-10 -7 -18 -20 -18 -29 0 -15 -21 -28 -43 -26 -7 0 -1 5
12 10 13 5 22 11 20 14 -6 5 -89 -23 -104 -35 -5 -4 -29 -14 -52 -20 -67 -20
-45 -38 40 -32 54 4 83 12 120 34 61 36 114 58 138 58 11 0 19 5 19 10 0 6
-22 10 -48 10 -26 0 -52 4 -57 9 -6 6 -17 5 -27 -3z m12 -26 c0 -5 -2 -10 -4
-10 -3 0 -8 5 -11 10 -3 6 -1 10 4 10 6 0 11 -4 11 -10z m-95 -40 c-3 -5 -12
-10 -18 -10 -7 0 -6 4 3 10 19 12 23 12 15 0z"/>
<path d="M5918 9753 c7 -3 16 -2 19 1 4 3 -2 6 -13 5 -11 0 -14 -3 -6 -6z"/>
<path d="M4090 9740 c0 -5 5 -10 11 -10 5 0 7 5 4 10 -3 6 -8 10 -11 10 -2 0
-4 -4 -4 -10z"/>
<path d="M4935 9740 c4 -6 11 -8 16 -5 14 9 11 15 -7 15 -8 0 -12 -5 -9 -10z"/>
<path d="M3958 9733 c7 -3 16 -2 19 1 4 3 -2 6 -13 5 -11 0 -14 -3 -6 -6z"/>
<path d="M5838 9723 c7 -3 16 -2 19 1 4 3 -2 6 -13 5 -11 0 -14 -3 -6 -6z"/>
<path d="M5896 9691 c17 -10 41 -22 55 -25 13 -4 2 4 -24 18 -56 30 -76 34
-31 7z"/>
<path d="M4288 9668 c-10 -10 -14 -18 -9 -18 10 0 36 29 30 34 -2 1 -12 -6
-21 -16z"/>
<path d="M3738 9663 c7 -3 16 -2 19 1 4 3 -2 6 -13 5 -11 0 -14 -3 -6 -6z"/>
<path d="M3858 9663 c7 -3 16 -2 19 1 4 3 -2 6 -13 5 -11 0 -14 -3 -6 -6z"/>
<path d="M3918 9663 c12 -2 30 -2 40 0 9 3 -1 5 -23 4 -22 0 -30 -2 -17 -4z"/>
<path d="M4235 9641 c-3 -6 -28 -11 -54 -11 -26 0 -56 -7 -67 -15 -22 -17 -12
-19 33 -6 20 6 35 5 41 -1 8 -8 16 -6 26 5 9 8 21 17 28 20 7 2 10 7 7 11 -4
4 -10 3 -14 -3z"/>
<path d="M5010 9634 c0 -13 20 -41 20 -29 0 6 9 -3 20 -20 l19 -30 -2 30 c-2
30 -2 30 58 33 91 4 91 11 0 10 -44 0 -88 3 -97 7 -10 4 -18 3 -18 -1z"/>
<path d="M5378 9633 c7 -3 16 -2 19 1 4 3 -2 6 -13 5 -11 0 -14 -3 -6 -6z"/>
<path d="M6050 9603 c8 -3 34 -19 57 -34 23 -16 44 -29 48 -29 4 0 27 -14 51
-31 54 -37 69 -31 29 11 -33 34 -113 75 -165 84 -19 3 -28 3 -20 -1z"/>
<path d="M4868 9593 c6 -2 18 -2 25 0 6 3 1 5 -13 5 -14 0 -19 -2 -12 -5z"/>
<path d="M4808 9573 c6 -2 18 -2 25 0 6 3 1 5 -13 5 -14 0 -19 -2 -12 -5z"/>
<path d="M4738 9563 c7 -3 16 -2 19 1 4 3 -2 6 -13 5 -11 0 -14 -3 -6 -6z"/>
<path d="M5178 9543 c7 -3 16 -2 19 1 4 3 -2 6 -13 5 -11 0 -14 -3 -6 -6z"/>
<path d="M4598 9533 c6 -2 18 -2 25 0 6 3 1 5 -13 5 -14 0 -19 -2 -12 -5z"/>
<path d="M5080 9526 c0 -12 7 -13 31 -6 46 13 48 20 6 20 -25 0 -37 -4 -37
-14z"/>
<path d="M4520 9520 c0 -13 30 -13 50 0 11 7 7 10 -17 10 -18 0 -33 -4 -33
-10z"/>
<path d="M4458 9503 c12 -2 30 -2 40 0 9 3 -1 5 -23 4 -22 0 -30 -2 -17 -4z"/>
<path d="M4385 9490 c-7 -12 2 -12 30 0 19 8 19 9 -2 9 -12 1 -25 -3 -28 -9z"/>
<path d="M4969 9489 c-10 -6 -4 -9 19 -9 17 0 32 2 32 4 0 9 -39 13 -51 5z"/>
<path d="M4855 9474 c-46 -10 -125 -39 -125 -46 0 -11 24 -10 36 1 8 8 38 16
149 37 17 3 32 8 34 10 5 5 -67 3 -94 -2z"/>
<path d="M7797 9416 c-3 -8 2 -20 11 -27 14 -11 15 -11 5 0 -6 7 -9 20 -6 27
3 8 3 14 0 14 -3 0 -7 -6 -10 -14z"/>
<path d="M4690 9410 c-8 -5 -10 -10 -5 -10 6 0 17 5 25 10 8 5 11 10 5 10 -5
0 -17 -5 -25 -10z"/>
<path d="M4138 9403 c12 -2 30 -2 40 0 9 3 -1 5 -23 4 -22 0 -30 -2 -17 -4z"/>
<path d="M4070 9384 c-14 -8 -17 -13 -7 -10 10 3 25 6 33 6 8 0 14 5 14 10 0
14 -10 12 -40 -6z"/>
<path d="M4633 9377 c-12 -6 -46 -29 -77 -49 -30 -21 -65 -38 -78 -39 -25 0
-70 -17 -53 -19 77 -11 82 -10 101 15 10 14 24 25 31 25 7 0 16 6 20 13 4 8
28 26 53 40 44 26 47 39 3 14z"/>
<path d="M5963 9342 c-32 -15 -44 -32 -23 -32 6 0 10 4 10 9 0 5 11 12 25 15
14 4 25 11 25 16 0 6 -1 9 -2 9 -2 -1 -18 -9 -35 -17z"/>
<path d="M7763 9295 c-7 -8 -9 -16 -4 -19 5 -3 12 1 15 10 8 22 4 25 -11 9z"/>
<path d="M5870 9290 c0 -5 -6 -10 -14 -10 -8 0 -22 -8 -32 -17 -10 -10 -19
-16 -22 -14 -2 2 -20 -10 -39 -25 -20 -16 -57 -41 -82 -56 -49 -29 -50 -36 -4
-16 24 10 96 60 113 78 10 10 46 31 73 41 26 11 37 29 17 29 -5 0 -10 -4 -10
-10z"/>
<path d="M7420 9265 c-16 -19 -10 -19 26 0 25 13 26 15 8 15 -12 0 -27 -7 -34
-15z"/>
<path d="M5718 9263 c7 -3 16 -2 19 1 4 3 -2 6 -13 5 -11 0 -14 -3 -6 -6z"/>
<path d="M3315 9250 c-3 -5 -4 -14 -1 -19 3 -5 -4 -12 -17 -16 l-22 -8 24 -4
c13 -3 40 -2 60 2 l36 7 -28 24 c-31 26 -42 29 -52 14z"/>
<path d="M6458 9242 c12 -12 36 -19 67 -21 60 -3 195 -38 212 -54 19 -19 53
-115 53 -150 1 -28 2 -29 11 -14 8 14 6 33 -10 76 -32 89 -30 95 27 86 26 -5
65 -8 87 -7 22 0 56 -3 75 -9 36 -9 47 -24 207 -277 28 -45 59 -89 67 -98 9
-8 16 -20 16 -26 0 -6 3 -8 6 -5 4 4 -2 19 -12 34 -10 15 -23 36 -29 45 -5 9
-23 38 -39 65 -16 26 -58 92 -93 146 -35 54 -61 101 -59 106 3 4 49 11 102 14
54 4 102 12 108 18 8 9 -14 10 -87 5 -119 -7 -394 10 -457 28 -74 22 -225 56
-249 56 -20 0 -20 -1 -3 -18z"/>
<path d="M7550 9243 c0 -16 28 -35 40 -28 6 4 25 0 43 -8 66 -31 83 -30 35 2
-47 33 -118 52 -118 34z"/>
<path d="M4900 9230 c0 -10 66 -7 77 4 3 3 -12 6 -35 6 -23 0 -42 -4 -42 -10z"/>
<path d="M5635 9231 c-3 -5 -19 -12 -35 -16 -17 -4 -28 -11 -25 -16 7 -10 59
14 70 31 3 5 4 10 1 10 -3 0 -7 -4 -11 -9z"/>
<path d="M3796 9195 c-15 -14 -23 -25 -18 -25 5 0 19 11 32 25 13 14 21 25 18
25 -3 0 -17 -11 -32 -25z"/>
<path d="M4380 9217 c0 -8 97 -107 105 -107 3 0 2 7 -1 15 -4 10 3 16 23 21
15 4 33 10 38 13 6 3 26 11 45 18 l35 12 -33 -5 c-19 -3 -50 -6 -70 -6 -21 0
-42 -4 -49 -10 -12 -10 -57 13 -80 42 -7 8 -13 11 -13 7z"/>
<path d="M4733 9213 c9 -2 25 -2 35 0 9 3 1 5 -18 5 -19 0 -27 -2 -17 -5z"/>
<path d="M4843 9213 c-21 -4 -54 -33 -37 -33 5 1 27 9 49 20 38 19 35 22 -12
13z"/>
<path d="M4998 9213 c7 -3 16 -2 19 1 4 3 -2 6 -13 5 -11 0 -14 -3 -6 -6z"/>
<path d="M7801 9204 c0 -11 3 -14 6 -6 3 7 2 16 -1 19 -3 4 -6 -2 -5 -13z"/>
<path d="M3440 9194 c0 -8 5 -12 10 -9 6 3 10 10 10 16 0 5 -4 9 -10 9 -5 0
-10 -7 -10 -16z"/>
<path d="M4653 9203 c9 -2 23 -2 30 0 6 3 -1 5 -18 5 -16 0 -22 -2 -12 -5z"/>
<path d="M5083 9203 c32 -2 81 -2 110 0 29 2 3 3 -58 3 -60 0 -84 -1 -52 -3z"/>
<path d="M3235 9175 l-30 -25 32 17 c18 10 33 21 33 26 0 10 -2 9 -35 -18z"/>
<path d="M5535 9190 c-3 -5 1 -10 9 -10 9 0 16 5 16 10 0 6 -4 10 -9 10 -6 0
-13 -4 -16 -10z"/>
<path d="M6450 9189 c0 -5 5 -7 10 -4 6 3 10 8 10 11 0 2 -4 4 -10 4 -5 0 -10
-5 -10 -11z"/>
<path d="M4770 9169 c0 -5 5 -7 10 -4 6 3 10 8 10 11 0 2 -4 4 -10 4 -5 0 -10
-5 -10 -11z"/>
<path d="M2975 9155 c-37 -12 -34 -12 50 -8 50 3 94 9 98 13 14 12 -107 9
-148 -5z"/>
<path d="M5385 9160 c-3 -5 1 -10 10 -10 9 0 13 5 10 10 -3 6 -8 10 -10 10 -2
0 -7 -4 -10 -10z"/>
<path d="M6441 9154 c0 -11 3 -14 6 -6 3 7 2 16 -1 19 -3 4 -6 -2 -5 -13z"/>
<path d="M4730 9153 c-8 -3 -17 -9 -20 -12 -3 -3 -26 -17 -52 -31 -26 -13 -46
-26 -44 -28 4 -4 69 28 119 58 31 19 29 25 -3 13z"/>
<path d="M5430 9150 c0 -12 8 -12 35 0 18 8 17 9 -7 9 -16 1 -28 -3 -28 -9z"/>
<path d="M2731 9141 c-8 -5 -19 -7 -26 -5 -12 5 -130 -34 -200 -66 -22 -10
-74 -33 -115 -52 -74 -33 -184 -98 -164 -98 5 0 18 6 29 14 11 7 63 32 115 54
52 23 119 52 147 66 29 14 56 26 60 26 5 0 22 7 38 16 17 9 49 17 73 19 23 2
48 8 55 13 7 6 28 12 47 15 l35 4 -40 1 c-22 1 -46 -2 -54 -7z"/>
<path d="M3134 9136 c-8 -22 -1 -49 15 -54 8 -3 11 0 7 6 -3 5 1 12 9 16 23 9
19 46 -5 46 -11 0 -23 -6 -26 -14z"/>
<path d="M6622 9115 c-1 -20 3 -33 7 -30 5 3 8 16 6 30 -4 39 -12 39 -13 0z"/>
<path d="M7775 9140 c3 -5 8 -10 11 -10 2 0 4 5 4 10 0 6 -5 10 -11 10 -5 0
-7 -4 -4 -10z"/>
<path d="M3675 9130 c4 -6 11 -8 16 -5 14 9 11 15 -7 15 -8 0 -12 -5 -9 -10z"/>
<path d="M5573 9104 c-168 -155 -204 -206 -52 -72 37 32 73 58 80 58 8 0 32
-11 54 -25 46 -28 63 -32 45 -10 -7 8 -19 15 -26 15 -8 0 -14 5 -14 10 0 6 -6
10 -14 10 -8 0 -18 9 -21 20 -8 26 -18 25 -52 -6z"/>
<path d="M6426 9115 c-3 -8 -1 -15 4 -15 6 0 10 7 10 15 0 8 -2 15 -4 15 -2 0
-6 -7 -10 -15z"/>
<path d="M7632 9094 c-1 -22 4 -49 13 -60 8 -10 15 -14 15 -8 0 5 -4 14 -9 20
-5 5 -11 27 -14 49 l-4 40 -1 -41z"/>
<path d="M6916 9090 c4 -19 10 -37 14 -40 4 -3 11 -16 14 -30 4 -14 18 -47 32
-75 36 -76 91 -218 99 -256 3 -19 13 -52 22 -75 13 -36 18 -41 46 -41 18 0 25
2 16 4 -15 4 -69 101 -69 126 -1 6 -9 30 -20 52 -11 22 -19 45 -20 52 0 7 -6
27 -14 45 -14 33 -28 69 -30 78 -1 3 -23 48 -49 100 -33 67 -45 85 -41 60z"/>
<path d="M7195 9079 c11 -13 30 -35 43 -49 13 -14 32 -45 43 -70 11 -25 24
-53 29 -62 6 -10 10 -28 10 -40 0 -19 2 -20 11 -8 8 12 9 9 5 -13 -8 -35 14
-145 30 -151 12 -5 8 29 -6 49 -14 21 -12 93 4 102 13 7 12 15 -4 63 -11 30
-19 63 -20 73 0 24 45 22 77 -3 43 -33 46 -22 4 15 -21 19 -45 35 -53 35 -23
0 -51 -37 -45 -60 6 -24 -11 -27 -20 -2 -11 32 -73 109 -101 127 l-27 18 20
-24z m145 -165 c0 -8 -5 -12 -10 -9 -6 4 -8 11 -5 16 9 14 15 11 15 -7z"/>
<path d="M3365 9080 c3 -5 10 -10 16 -10 5 0 9 5 9 10 0 6 -7 10 -16 10 -8 0
-12 -4 -9 -10z"/>
<path d="M6417 9083 c-3 -5 -8 -28 -11 -53 -8 -54 8 -35 19 23 7 34 3 48 -8
30z"/>
<path d="M7470 9071 c0 -5 5 -13 10 -16 6 -3 10 -2 10 4 0 5 -4 13 -10 16 -5
3 -10 2 -10 -4z"/>
<path d="M2997 9053 c-15 -15 -4 -18 63 -18 49 0 70 4 70 13 0 13 -121 18
-133 5z"/>
<path d="M7520 9034 c0 -11 143 -145 149 -139 3 4 -27 38 -67 76 -70 66 -82
76 -82 63z"/>
<path d="M3506 8983 c-6 -14 -5 -15 5 -6 7 7 10 15 7 18 -3 3 -9 -2 -12 -12z"/>
<path d="M5287 8993 c-10 -9 -9 -23 2 -23 5 0 11 7 15 15 5 15 -5 20 -17 8z"/>
<path d="M6617 8925 c-4 -44 -10 -98 -13 -120 -4 -30 -3 -36 5 -25 6 8 11 29
11 46 0 17 5 45 11 62 7 20 7 46 2 74 -9 42 -9 42 -16 -37z"/>
<path d="M6387 8973 c-12 -18 -19 -83 -9 -83 5 0 12 19 16 41 6 40 3 59 -7 42z"/>
<path d="M2569 8930 c-30 -22 -58 -43 -64 -47 -5 -4 -37 -26 -70 -48 -33 -22
-62 -42 -65 -46 -3 -3 -43 -33 -90 -67 -47 -34 -97 -73 -110 -88 -14 -15 20 6
75 47 123 92 218 159 312 221 39 27 75 52 78 58 13 20 -13 9 -66 -30z"/>
<path d="M3468 8935 c-25 -33 -79 -59 -90 -43 -5 9 -8 6 -8 -9 0 -28 12 -29
48 -5 40 26 93 82 76 82 -5 0 -17 -11 -26 -25z"/>
<path d="M6812 8940 c0 -14 2 -19 5 -12 2 6 2 18 0 25 -3 6 -5 1 -5 -13z"/>
<path d="M5271 8934 c0 -11 3 -14 6 -6 3 7 2 16 -1 19 -3 4 -6 -2 -5 -13z"/>
<path d="M5370 8936 c0 -2 7 -9 15 -16 9 -7 15 -8 15 -2 0 5 -7 12 -15 16 -8
3 -15 4 -15 2z"/>
<path d="M7480 8923 c0 -3 26 -35 58 -71 100 -113 132 -156 138 -190 3 -18 11
-32 18 -31 32 4 50 -5 95 -48 27 -27 57 -56 68 -65 20 -18 33 -35 49 -63 5
-10 21 -25 35 -33 17 -10 20 -11 9 -1 -9 8 -37 46 -63 85 -26 40 -100 126
-165 191 -126 128 -242 237 -242 226z"/>
<path d="M5478 8885 c34 -15 40 -32 20 -54 -7 -8 -1 -6 15 4 15 9 27 23 27 30
0 15 -43 35 -73 35 -18 -1 -16 -3 11 -15z"/>
<path d="M5257 8883 c-4 -3 -7 -14 -7 -24 0 -10 -31 -48 -70 -85 -38 -37 -70
-72 -70 -78 0 -6 35 24 78 66 l77 76 70 -18 c74 -20 150 -26 141 -11 -3 4 -34
12 -68 15 -48 6 -69 14 -95 37 -35 30 -45 34 -56 22z"/>
<path d="M6824 8820 c4 -41 13 -81 20 -88 11 -11 10 3 -1 70 -18 106 -28 115
-19 18z"/>
<path d="M6350 8865 c0 -8 5 -15 10 -15 6 0 10 7 10 15 0 8 -4 15 -10 15 -5 0
-10 -7 -10 -15z"/>
<path d="M6190 8815 c36 -13 70 -25 75 -24 21 0 -70 39 -104 44 -27 4 -19 -1
29 -20z"/>
<path d="M6344 8823 c-3 -10 -10 -27 -14 -38 -5 -11 -18 -51 -30 -90 -12 -38
-25 -77 -30 -85 -10 -20 -24 -87 -17 -80 3 3 21 52 40 108 42 123 49 133 85
121 83 -27 187 -75 185 -85 -1 -5 19 -7 44 -5 l44 3 -28 15 c-15 8 -41 16 -57
19 -15 2 -33 7 -40 12 -6 5 -42 20 -81 32 -87 30 -93 34 -87 65 5 28 -6 34
-14 8z"/>
<path d="M7426 8787 c49 -63 124 -143 96 -102 -11 17 -46 57 -77 90 -50 53
-52 55 -19 12z"/>
<path d="M6720 8702 c0 -4 24 -7 52 -6 29 1 61 -2 70 -7 11 -6 18 -6 18 -1 0
6 -10 12 -22 16 -33 8 -118 7 -118 -2z"/>
<path d="M7362 8640 c0 -19 2 -27 5 -17 2 9 2 25 0 35 -3 9 -5 1 -5 -18z"/>
<path d="M7572 8627 c15 -13 30 -36 34 -51 5 -20 9 -24 15 -15 4 7 5 17 3 21
-3 4 0 8 5 8 6 0 11 -4 11 -10 0 -5 15 -17 33 -26 17 -9 34 -20 37 -24 8 -11
60 -18 66 -9 3 5 -2 9 -11 9 -24 0 -77 30 -100 56 -11 12 -32 26 -47 29 -15 4
-32 13 -39 21 -6 8 -17 14 -23 14 -6 0 1 -10 16 -23z"/>
<path d="M7213 8600 c-35 -15 -27 -22 16 -15 21 3 58 1 81 -5 49 -13 66 -6 24
11 -42 16 -96 20 -121 9z"/>
<path d="M6393 8564 c-26 -23 -26 -24 -3 -12 31 17 54 38 41 38 -5 0 -23 -11
-38 -26z"/>
<path d="M7386 8573 c-6 -14 -5 -15 5 -6 7 7 10 15 7 18 -3 3 -9 -2 -12 -12z"/>
<path d="M7017 8549 c7 -7 15 -10 18 -7 3 3 -2 9 -12 12 -14 6 -15 5 -6 -5z"/>
<path d="M7066 8512 c11 -11 31 -23 45 -27 l24 -7 -25 19 c-14 11 -34 23 -45
27 -19 7 -19 7 1 -12z"/>
<path d="M7140 8512 c0 -11 4 -23 9 -27 5 -3 9 -18 9 -34 -1 -15 3 -34 7 -41
6 -9 4 -11 -6 -5 -7 5 -25 9 -40 10 -15 1 -34 9 -44 18 -18 19 -30 23 -20 7
11 -18 81 -58 116 -68 19 -4 39 -18 45 -30 l10 -21 18 21 c16 18 16 20 2 15
-20 -8 -53 41 -62 93 -4 19 -15 46 -25 59 -18 23 -19 23 -19 3z"/>
<path d="M7390 8506 c0 -9 5 -16 10 -16 6 0 10 -15 11 -32 1 -30 2 -31 8 -8 6
22 14 26 66 31 l60 6 -53 1 c-29 1 -64 9 -77 18 -23 15 -25 15 -25 0z"/>
<path d="M7560 8495 c-11 -13 -10 -14 4 -9 9 3 16 10 16 15 0 13 -6 11 -20 -6z"/>
<path d="M1929 8426 c-41 -35 -92 -83 -114 -107 -22 -24 -110 -120 -195 -213
-172 -186 -205 -228 -301 -378 -83 -129 -131 -216 -127 -229 2 -6 14 9 27 33
22 40 83 135 170 268 68 103 106 152 127 163 12 7 44 38 70 69 198 231 282
321 388 416 76 67 37 49 -45 -22z"/>
<path d="M7240 8477 c0 -22 23 -37 57 -37 38 0 42 12 11 34 -27 19 -68 21 -68
3z"/>
<path d="M6645 8448 c-19 -11 -50 -47 -50 -58 -1 -14 -22 -35 -63 -61 -25 -16
-41 -29 -36 -29 21 0 105 61 114 82 18 44 36 58 74 58 22 0 35 4 31 10 -8 13
-45 12 -70 -2z"/>
<path d="M6138 8408 c9 -9 15 -9 24 0 9 9 7 12 -12 12 -19 0 -21 -3 -12 -12z"/>
<path d="M6060 8390 c-11 -8 -7 -9 15 -4 37 8 45 14 19 14 -10 0 -26 -5 -34
-10z"/>
<path d="M7348 8383 c7 -3 16 -2 19 1 4 3 -2 6 -13 5 -11 0 -14 -3 -6 -6z"/>
<path d="M6025 8360 c-3 -6 1 -7 9 -4 18 7 21 14 7 14 -6 0 -13 -4 -16 -10z"/>
<path d="M5986 8315 c4 -8 8 -15 10 -15 2 0 4 7 4 15 0 8 -4 15 -10 15 -5 0
-7 -7 -4 -15z"/>
<path d="M5471 8291 c-23 -24 -32 -48 -41 -102 -11 -67 -11 -73 9 -100 12 -15
21 -43 22 -61 0 -31 1 -31 10 -10 6 17 5 33 -7 57 -9 19 -13 39 -9 44 3 6 0
11 -8 11 -12 0 -12 8 0 58 20 83 32 102 63 102 20 0 31 -8 43 -32 l17 -33 -3
30 c-1 21 -11 34 -35 48 l-32 19 -29 -31z"/>
<path d="M5706 8237 c-14 -30 -26 -59 -26 -65 0 -7 -4 -12 -9 -12 -5 0 -12
-13 -16 -30 -4 -16 -10 -30 -15 -30 -4 0 -11 -12 -15 -27 -3 -14 -19 -42 -35
-62 -32 -38 -32 -55 0 -26 15 14 160 286 160 301 0 2 -4 4 -9 4 -5 0 -20 -24
-35 -53z"/>
<path d="M6425 8249 c-11 -16 -1 -19 13 -3 7 8 8 14 3 14 -5 0 -13 -5 -16 -11z"/>
<path d="M5961 8194 c0 -11 3 -14 6 -6 3 7 2 16 -1 19 -3 4 -6 -2 -5 -13z"/>
<path d="M5970 8158 c0 -28 17 -41 36 -28 16 10 16 11 2 6 -11 -3 -18 0 -18 9
0 7 -4 17 -10 20 -5 3 -10 0 -10 -7z"/>
<path d="M5237 8144 c-21 -8 -55 -26 -75 -41 -20 -15 -39 -28 -41 -29 -1 -2 0
-8 4 -13 4 -8 13 -7 27 3 18 13 24 13 46 -2 25 -16 26 -16 19 2 -6 16 -5 17 8
6 14 -12 14 -15 -2 -34 -11 -13 -7 -12 12 5 17 15 42 34 58 44 19 12 27 26 27
46 0 33 -19 36 -83 13z"/>
<path d="M6058 8143 c7 -3 16 -2 19 1 4 3 -2 6 -13 5 -11 0 -14 -3 -6 -6z"/>
<path d="M6458 8124 c13 -9 30 -13 39 -10 20 8 16 12 -27 20 -34 6 -35 6 -12
-10z"/>
<path d="M5055 8048 c-21 -29 -30 -46 -20 -38 27 22 74 74 75 83 0 19 -19 3
-55 -45z"/>
<path d="M6593 8063 c9 -2 23 -2 30 0 6 3 -1 5 -18 5 -16 0 -22 -2 -12 -5z"/>
<path d="M6092 8044 c-7 -8 -23 -14 -36 -14 -13 0 -31 -9 -41 -20 -10 -11 -13
-20 -7 -20 7 0 12 5 12 10 0 23 39 9 48 -17 10 -26 10 -26 11 -5 1 12 8 34 17
48 19 28 16 39 -4 18z"/>
<path d="M5991 7964 c0 -11 3 -14 6 -6 3 7 2 16 -1 19 -3 4 -6 -2 -5 -13z"/>
<path d="M6778 7973 c12 -2 32 -2 45 0 12 2 2 4 -23 4 -25 0 -35 -2 -22 -4z"/>
<path d="M5538 7944 c-3 -12 0 -34 7 -50 6 -16 10 -36 7 -44 -7 -20 -61 -72
-70 -67 -4 3 -16 1 -27 -4 -17 -7 -16 -8 8 -8 45 -1 96 25 103 53 3 14 0 52
-8 83 -10 43 -16 52 -20 37z"/>
<path d="M6517 7946 c-4 -10 -7 -30 -6 -44 1 -25 1 -25 10 6 11 37 7 67 -4 38z"/>
<path d="M6040 7929 c0 -5 5 -7 10 -4 6 3 10 8 10 11 0 2 -4 4 -10 4 -5 0 -10
-5 -10 -11z"/>
<path d="M6690 7936 c0 -2 7 -7 16 -10 8 -3 12 -2 9 4 -6 10 -25 14 -25 6z"/>
<path d="M5978 7924 c-14 -13 -9 -104 5 -104 9 0 12 13 9 43 -5 63 -6 70 -14
61z"/>
<path d="M6005 7919 c-4 -6 -5 -12 -2 -15 2 -3 7 2 10 11 7 17 1 20 -8 4z"/>
<path d="M6025 7900 c3 -5 8 -10 11 -10 2 0 4 5 4 10 0 6 -5 10 -11 10 -5 0
-7 -4 -4 -10z"/>
<path d="M6167 7898 c-10 -5 -30 -7 -45 -4 -26 6 -26 6 -8 -9 21 -16 96 -21
96 -6 0 18 -25 30 -43 19z"/>
<path d="M6720 7899 c0 -5 5 -7 10 -4 6 3 10 8 10 11 0 2 -4 4 -10 4 -5 0 -10
-5 -10 -11z"/>
<path d="M6000 7880 c0 -5 5 -10 10 -10 6 0 10 5 10 10 0 6 -4 10 -10 10 -5 0
-10 -4 -10 -10z"/>
<path d="M6550 7861 c0 -15 4 -20 12 -15 7 5 26 7 43 6 39 -3 22 15 -23 24
-28 6 -32 4 -32 -15z"/>
<path d="M6020 7846 c0 -7 6 -19 14 -25 11 -9 12 -6 8 14 -5 26 -22 35 -22 11z"/>
<path d="M5778 7843 c7 -3 16 -2 19 1 4 3 -2 6 -13 5 -11 0 -14 -3 -6 -6z"/>
<path d="M6658 7843 c12 -2 30 -2 40 0 9 3 -1 5 -23 4 -22 0 -30 -2 -17 -4z"/>
<path d="M5745 7819 c-4 -6 -5 -12 -2 -15 2 -3 7 2 10 11 7 17 1 20 -8 4z"/>
<path d="M5880 7800 c0 -5 7 -10 16 -10 8 0 12 5 9 10 -3 6 -10 10 -16 10 -5
0 -9 -4 -9 -10z"/>
<path d="M6060 7804 c0 -2 14 -10 30 -19 17 -9 30 -13 30 -9 0 4 7 1 15 -6 9
-7 18 -10 22 -6 3 3 4 8 2 9 -7 6 -99 34 -99 31z"/>
<path d="M5928 7783 c7 -3 16 -2 19 1 4 3 -2 6 -13 5 -11 0 -14 -3 -6 -6z"/>
<path d="M6333 7762 c-13 -2 -23 -7 -23 -11 0 -5 10 -8 23 -7 12 1 32 -4 44
-12 12 -8 28 -12 35 -9 8 4 6 6 -4 6 -10 1 -18 6 -18 11 0 6 -6 10 -14 10 -8
0 -16 3 -18 8 -1 4 -13 6 -25 4z"/>
<path d="M6198 7743 c6 -2 18 -2 25 0 6 3 1 5 -13 5 -14 0 -19 -2 -12 -5z"/>
<path d="M6510 7742 c0 -7 -10 -13 -22 -13 -19 -1 -20 -2 -4 -6 20 -5 44 12
33 24 -4 3 -7 1 -7 -5z"/>
<path d="M5575 7730 c-4 -6 7 -10 27 -9 27 0 30 2 13 9 -27 12 -33 12 -40 0z"/>
<path d="M5152 7708 c2 -6 15 -18 28 -27 14 -10 21 -11 16 -3 -5 9 3 12 31 13
l38 0 -45 15 c-55 17 -73 18 -68 2z"/>
<path d="M5538 7713 c7 -3 16 -2 19 1 4 3 -2 6 -13 5 -11 0 -14 -3 -6 -6z"/>
<path d="M5230 7613 c0 -6 9 -20 20 -33 11 -13 20 -20 20 -16 0 4 -9 19 -20
33 -11 14 -20 21 -20 16z"/>
<path d="M1670 7595 c0 -4 9 -18 20 -32 11 -14 20 -22 20 -18 0 4 -9 18 -20
32 -11 14 -20 22 -20 18z"/>
<path d="M1087 7557 c-3 -8 1 -14 8 -14 7 0 11 6 8 14 -3 7 -6 13 -8 13 -2 0
-5 -6 -8 -13z"/>
<path d="M5272 7520 c0 -14 2 -19 5 -12 2 6 2 18 0 25 -3 6 -5 1 -5 -13z"/>
<path d="M1727 7500 c9 -19 19 -37 23 -40 3 -3 21 -29 39 -58 19 -29 36 -51
38 -48 4 3 -66 115 -101 161 -13 16 -12 13 1 -15z"/>
<path d="M4784 7458 c-5 -7 -2 -9 9 -5 8 3 34 -3 56 -14 56 -27 64 -24 16 6
-44 27 -70 31 -81 13z"/>
<path d="M4910 7400 c8 -5 20 -10 25 -10 6 0 3 5 -5 10 -8 5 -19 10 -25 10 -5
0 -3 -5 5 -10z"/>
<path d="M317 7373 c-3 -10 -11 -43 -17 -73 -7 -30 -25 -93 -41 -140 -15 -47
-33 -103 -38 -125 -6 -22 -17 -67 -26 -100 -36 -133 -88 -377 -100 -470 -4
-27 -11 -63 -16 -80 -4 -16 -13 -111 -19 -210 -6 -99 -13 -204 -15 -234 -5
-50 10 -132 35 -186 5 -11 21 -49 36 -85 49 -119 205 -441 287 -592 20 -38 53
-98 73 -135 20 -38 56 -99 80 -138 23 -38 46 -83 50 -100 6 -29 4 -28 -51 25
-54 52 -200 234 -293 365 -23 33 -62 88 -87 122 -24 34 -57 88 -74 120 -16 32
-37 67 -46 78 -15 19 -16 13 -11 -85 3 -58 10 -201 16 -319 6 -118 14 -231 19
-250 5 -20 13 -61 16 -91 7 -54 42 -221 70 -330 7 -30 18 -77 25 -105 6 -27
15 -57 19 -65 5 -9 12 -31 15 -50 4 -19 11 -44 16 -55 4 -11 18 -51 30 -90 12
-38 28 -84 36 -102 8 -17 14 -36 14 -41 0 -10 62 -179 80 -217 5 -11 19 -42
30 -70 122 -284 276 -572 448 -835 42 -63 88 -131 102 -150 15 -19 54 -71 86
-115 151 -207 338 -418 550 -626 234 -227 525 -460 779 -623 33 -21 72 -47 87
-57 15 -11 32 -19 38 -19 5 0 10 -4 10 -8 0 -4 24 -20 53 -35 28 -15 59 -32
67 -37 146 -91 512 -271 650 -320 36 -13 69 -27 75 -32 5 -4 16 -8 25 -8 8 0
27 -6 42 -14 15 -8 41 -17 59 -21 19 -4 40 -11 49 -15 21 -11 138 -47 175 -53
17 -3 47 -13 68 -22 32 -13 37 -18 26 -31 -21 -25 -190 -101 -274 -123 -215
-56 -360 -63 -575 -26 -257 43 -325 61 -392 102 -37 22 -58 29 -58 18 0 -15
31 -62 52 -80 210 -179 382 -268 633 -327 94 -22 119 -23 415 -22 313 0 316 0
415 28 55 15 116 31 135 36 38 10 212 85 270 116 146 80 278 200 323 295 62
132 60 316 -8 639 -17 82 -39 274 -37 320 7 128 74 234 195 309 20 12 37 26
37 30 0 5 -30 13 -67 19 -90 14 -170 30 -213 42 -19 5 -80 21 -135 35 -55 13
-131 34 -170 45 -38 12 -88 26 -110 32 -22 6 -44 14 -50 18 -5 4 -25 11 -43
15 -18 4 -45 13 -60 21 -15 8 -32 14 -38 14 -10 0 -50 15 -219 81 -27 11 -59
24 -70 29 -11 5 -42 19 -70 30 -154 66 -372 174 -488 242 -54 32 -101 58 -103
58 -3 0 -17 9 -32 19 -15 10 -76 50 -137 87 -188 116 -479 331 -655 483 -102
88 -533 519 -595 594 -196 240 -402 522 -504 692 -23 39 -47 79 -54 90 -114
186 -276 511 -362 725 -10 25 -27 64 -37 87 -10 23 -18 48 -18 55 0 8 -4 18
-9 24 -5 5 -21 45 -35 89 -15 44 -31 89 -36 100 -5 11 -18 54 -30 95 -12 41
-25 84 -30 95 -4 11 -13 38 -19 60 -5 22 -15 60 -21 85 -7 25 -15 54 -20 65
-8 19 -31 120 -64 285 -68 328 -96 569 -102 870 -3 124 -7 235 -9 248 -6 26
-22 29 -28 5z"/>
<path d="M957 7350 c-9 -22 -17 -43 -17 -46 0 -6 -37 -93 -50 -116 -12 -21
-13 -38 -2 -38 4 0 18 30 31 67 13 38 32 80 42 94 10 14 16 29 13 32 -3 3 -1
15 6 26 6 12 7 21 3 21 -5 0 -16 -18 -26 -40z"/>
<path d="M4950 7380 c0 -5 11 -12 25 -16 14 -3 25 -10 25 -15 0 -5 5 -9 10 -9
21 0 9 20 -15 26 -14 3 -25 10 -25 15 0 5 -4 9 -10 9 -5 0 -10 -4 -10 -10z"/>
<path d="M5206 7373 c-6 -14 -5 -15 5 -6 7 7 10 15 7 18 -3 3 -9 -2 -12 -12z"/>
<path d="M5048 7325 c12 -9 39 -18 60 -20 20 -3 28 -2 17 1 -11 4 -24 10 -30
14 -5 4 -23 10 -40 14 -30 7 -30 7 -7 -9z"/>
<path d="M5169 7323 c-13 -16 -12 -17 4 -4 9 7 17 15 17 17 0 8 -8 3 -21 -13z"/>
<path d="M4474 7142 c-87 -131 -107 -164 -147 -247 -21 -44 -43 -88 -48 -99
-6 -11 -7 -16 -1 -12 5 3 21 28 35 54 39 74 82 153 103 188 11 18 33 56 51 86
18 30 42 63 53 73 11 10 20 22 20 27 0 22 -19 2 -66 -70z"/>
<path d="M5470 7196 c0 -2 7 -7 16 -10 8 -3 12 -2 9 4 -6 10 -25 14 -25 6z"/>
<path d="M5728 7183 c6 -2 18 -2 25 0 6 3 1 5 -13 5 -14 0 -19 -2 -12 -5z"/>
<path d="M5336 7143 c-4 -13 -13 -23 -19 -24 -7 0 -34 -2 -61 -4 -72 -5 -69
-15 6 -15 69 0 93 13 86 47 -4 15 -5 15 -12 -4z"/>
<path d="M5638 7153 c7 -3 16 -2 19 1 4 3 -2 6 -13 5 -11 0 -14 -3 -6 -6z"/>
<path d="M5580 7140 c0 -5 5 -10 10 -10 6 0 10 5 10 10 0 6 -4 10 -10 10 -5 0
-10 -4 -10 -10z"/>
<path d="M870 7129 c0 -5 5 -7 10 -4 6 3 10 8 10 11 0 2 -4 4 -10 4 -5 0 -10
-5 -10 -11z"/>
<path d="M6090 7105 c0 -8 4 -15 10 -15 5 0 7 7 4 15 -4 8 -8 15 -10 15 -2 0
-4 -7 -4 -15z"/>
<path d="M857 7104 c-3 -6 -9 -30 -13 -53 -4 -23 -11 -44 -15 -47 -14 -8 -10
-68 6 -90 13 -17 14 -14 9 39 -5 40 -3 57 5 57 7 0 9 5 6 11 -4 5 -2 23 5 39
12 29 10 64 -3 44z"/>
<path d="M5770 7070 c-14 -11 -37 -22 -52 -25 -24 -6 -28 -12 -28 -40 0 -24 5
-34 19 -38 15 -3 20 2 25 25 3 16 20 43 36 60 36 35 36 45 0 18z"/>
<path d="M6970 7050 c0 -13 20 -13 40 0 12 8 9 10 -12 10 -16 0 -28 -4 -28
-10z"/>
<path d="M5100 7029 c0 -5 5 -7 10 -4 6 3 10 8 10 11 0 2 -4 4 -10 4 -5 0 -10
-5 -10 -11z"/>
<path d="M5160 7029 c23 -16 172 -85 200 -93 101 -29 261 -98 280 -121 9 -11
11 -32 6 -68 -16 -139 -24 -160 -49 -139 -7 6 -32 14 -55 18 -23 4 -42 10 -42
14 0 5 -19 13 -42 19 -137 34 -175 44 -193 52 -21 9 -106 27 -167 36 -24 3
-38 1 -38 -6 0 -6 6 -11 13 -12 6 0 21 -2 32 -4 11 -2 34 -6 50 -8 17 -3 57
-12 90 -21 33 -10 76 -21 95 -26 33 -9 189 -64 258 -91 23 -10 32 -20 32 -36
0 -13 -4 -23 -9 -23 -5 0 -11 -18 -15 -40 -3 -21 -12 -43 -19 -47 -8 -4 -17
-17 -21 -28 -5 -15 0 -13 23 10 38 38 55 99 70 265 7 69 16 129 21 134 6 6 24
3 47 -6 52 -22 223 -62 230 -54 4 3 -3 6 -15 6 -11 0 -23 4 -26 9 -3 5 -27 12
-53 15 -119 17 -180 51 -157 87 4 8 3 9 -4 5 -7 -4 -12 -2 -12 3 0 6 6 11 13
11 7 0 5 5 -5 10 -10 6 -15 19 -12 32 2 13 -2 7 -9 -12 -11 -32 -16 -36 -54
-39 -23 -1 -57 4 -75 12 -18 9 -44 18 -58 22 -14 3 -38 12 -55 19 -16 8 -55
21 -85 30 -53 16 -136 48 -172 67 -24 12 -36 11 -18 -2z"/>
<path d="M5951 7024 c0 -11 3 -14 6 -6 3 7 2 16 -1 19 -3 4 -6 -2 -5 -13z"/>
<path d="M6926 7024 c-6 -15 -4 -15 11 -3 10 7 20 15 22 16 2 2 -3 3 -11 3 -9
0 -19 -7 -22 -16z"/>
<path d="M7238 7023 c7 -3 16 -2 19 1 4 3 -2 6 -13 5 -11 0 -14 -3 -6 -6z"/>
<path d="M5835 7000 c4 -14 11 -27 15 -30 4 -3 11 -13 17 -24 6 -10 13 -15 15
-10 3 5 -8 27 -24 49 -24 31 -29 34 -23 15z"/>
<path d="M7066 7012 c-3 -6 -1 -14 5 -17 15 -10 25 3 12 16 -7 7 -13 7 -17 1z"/>
<path d="M5090 6995 c0 -8 -4 -15 -8 -15 -5 0 -15 -19 -22 -42 -21 -71 -57
-142 -82 -165 -16 -15 -39 -23 -81 -26 -31 -2 -61 -7 -65 -12 -4 -4 27 -4 68
0 41 3 92 6 112 7 21 0 35 4 32 9 -3 5 -14 9 -25 9 -20 0 -26 19 -10 36 30 30
104 214 87 214 -3 0 -6 -7 -6 -15z"/>
<path d="M7198 7003 c7 -3 16 -2 19 1 4 3 -2 6 -13 5 -11 0 -14 -3 -6 -6z"/>
<path d="M7999 6993 c30 -3 50 -11 62 -26 10 -12 18 -17 19 -11 0 24 -37 44
-81 42 l-44 -1 44 -4z"/>
<path d="M4661 6954 c0 -11 3 -14 6 -6 3 7 2 16 -1 19 -3 4 -6 -2 -5 -13z"/>
<path d="M7091 6945 c-1 -68 5 -75 73 -74 33 1 52 4 42 6 -14 4 -16 7 -6 13
11 7 10 12 -3 25 -10 9 -17 23 -17 31 0 8 -4 14 -10 14 -5 0 -10 -7 -10 -15 0
-8 5 -15 11 -15 5 0 7 -4 4 -10 -3 -5 -2 -10 4 -10 6 0 8 -6 5 -14 -4 -9 -15
-13 -31 -10 -26 5 -56 28 -47 36 2 3 0 16 -5 29 -9 23 -10 23 -10 -6z"/>
<path d="M7880 6950 c-13 -11 -18 -20 -12 -20 10 0 42 27 42 36 0 8 -7 4 -30
-16z"/>
<path d="M6886 6949 c3 -5 -1 -9 -9 -9 -8 0 -22 -9 -32 -20 -17 -18 -17 -20
-2 -14 9 3 17 10 17 15 0 4 16 11 35 15 41 7 46 18 10 20 -14 1 -22 -2 -19 -7z"/>
<path d="M7324 6935 c-15 -14 -24 -29 -19 -33 4 -4 10 -1 12 6 3 7 14 22 26
33 11 10 18 19 14 19 -3 0 -18 -11 -33 -25z"/>
<path d="M6187 6939 c7 -7 15 -10 18 -7 3 3 -2 9 -12 12 -14 6 -15 5 -6 -5z"/>
<path d="M4638 6911 c-3 -17 -1 -31 3 -31 11 0 19 44 10 53 -5 5 -11 -5 -13
-22z"/>
<path d="M4698 6933 c12 -2 32 -2 45 0 12 2 2 4 -23 4 -25 0 -35 -2 -22 -4z"/>
<path d="M5008 6933 c6 -2 18 -2 25 0 6 3 1 5 -13 5 -14 0 -19 -2 -12 -5z"/>
<path d="M5900 6905 c22 -27 92 -95 98 -95 8 0 -72 86 -93 100 -19 12 -19 12
-5 -5z"/>
<path d="M7794 6888 l-19 -23 25 20 c14 11 27 21 29 22 2 2 0 3 -6 3 -5 0 -18
-10 -29 -22z"/>
<path d="M7920 6873 c0 -10 4 -24 8 -31 6 -8 9 -2 9 18 0 16 -4 30 -9 30 -4 0
-8 -8 -8 -17z"/>
<path d="M4878 6873 c7 -3 16 -2 19 1 4 3 -2 6 -13 5 -11 0 -14 -3 -6 -6z"/>
<path d="M824 6803 c3 -38 9 -95 13 -128 7 -54 9 -57 15 -28 4 17 3 46 -2 65
-6 18 -10 61 -10 95 0 39 -4 63 -11 63 -7 0 -9 -22 -5 -67z"/>
<path d="M4591 6845 c-19 -14 -40 -26 -45 -28 -6 -3 -8 -7 -4 -11 6 -8 57 20
69 38 4 5 17 6 29 3 17 -4 19 -3 9 9 -15 18 -17 18 -58 -11z"/>
<path d="M6276 6857 c3 -10 9 -15 12 -12 3 3 0 11 -7 18 -10 9 -11 8 -5 -6z"/>
<path d="M7760 6850 c0 -5 5 -10 10 -10 6 0 10 5 10 10 0 6 -4 10 -10 10 -5 0
-10 -4 -10 -10z"/>
<path d="M6063 6832 c10 -10 17 -26 17 -36 0 -9 4 -15 9 -12 5 3 25 -18 45
-47 30 -43 46 -57 87 -71 27 -10 54 -27 60 -38 6 -11 13 -17 16 -14 9 9 -37
65 -51 60 -13 -5 -176 148 -176 166 0 5 -5 10 -12 10 -6 0 -4 -7 5 -18z"/>
<path d="M6926 6839 c-2 -8 -7 -32 -11 -54 -4 -22 -10 -44 -14 -50 -4 -5 -11
-19 -15 -30 -7 -19 -6 -19 15 2 15 15 25 41 30 80 7 54 5 82 -5 52z"/>
<path d="M4676 6819 c8 -13 120 -69 136 -68 7 0 1 5 -14 11 -16 5 -28 13 -28
18 0 5 -13 11 -30 15 -16 4 -30 10 -30 15 0 4 -9 10 -20 13 -11 3 -17 1 -14
-4z"/>
<path d="M7769 6783 c8 -26 37 -97 64 -153 15 -30 57 -95 57 -87 0 14 -24 57
-32 57 -4 0 -8 6 -8 13 0 6 -6 24 -14 39 -8 15 -17 40 -21 57 -4 17 -11 31
-15 31 -5 0 -12 16 -16 35 -3 19 -10 35 -14 35 -5 0 -5 -12 -1 -27z"/>
<path d="M4510 6789 c0 -5 5 -7 10 -4 6 3 10 8 10 11 0 2 -4 4 -10 4 -5 0 -10
-5 -10 -11z"/>
<path d="M7980 6791 c-8 -6 -19 -7 -25 -4 -5 3 -3 0 5 -8 8 -8 20 -21 28 -29
11 -13 12 -12 2 7 -8 18 -7 24 7 32 10 6 14 10 8 11 -5 0 -17 -4 -25 -9z"/>
<path d="M4440 6780 c0 -12 17 -12 45 0 17 7 15 9 -12 9 -18 1 -33 -3 -33 -9z"/>
<path d="M6772 6770 c0 -14 2 -19 5 -12 2 6 2 18 0 25 -3 6 -5 1 -5 -13z"/>
<path d="M1520 6769 c0 -5 5 -7 10 -4 6 3 10 8 10 11 0 2 -4 4 -10 4 -5 0 -10
-5 -10 -11z"/>
<path d="M7919 6770 c-6 -17 8 -86 23 -114 5 -10 12 -43 15 -74 5 -49 8 -53
20 -37 15 22 17 48 3 73 -21 38 -40 89 -48 127 -5 22 -11 33 -13 25z"/>
<path d="M4398 6763 c6 -2 18 -2 25 0 6 3 1 5 -13 5 -14 0 -19 -2 -12 -5z"/>
<path d="M4358 6753 c7 -3 16 -2 19 1 4 3 -2 6 -13 5 -11 0 -14 -3 -6 -6z"/>
<path d="M5978 6743 c7 -3 16 -2 19 1 4 3 -2 6 -13 5 -11 0 -14 -3 -6 -6z"/>
<path d="M4298 6733 c7 -3 16 -2 19 1 4 3 -2 6 -13 5 -11 0 -14 -3 -6 -6z"/>
<path d="M6020 6736 c0 -5 7 -17 15 -26 11 -13 13 -27 6 -70 -5 -30 -8 -56 -6
-58 10 -11 36 16 41 43 9 47 2 76 -21 89 -11 6 -23 16 -27 21 -4 6 -8 6 -8 1z"/>
<path d="M6768 6695 c-2 -25 0 -45 4 -45 5 0 8 20 8 45 0 25 -2 45 -4 45 -2 0
-6 -20 -8 -45z"/>
<path d="M6281 6714 c0 -11 3 -14 6 -6 3 7 2 16 -1 19 -3 4 -6 -2 -5 -13z"/>
<path d="M4225 6689 c-9 -28 1 -36 14 -10 7 12 7 22 2 26 -5 3 -13 -4 -16 -16z"/>
<path d="M7453 6670 c0 -25 2 -35 4 -22 2 12 2 32 0 45 -2 12 -4 2 -4 -23z"/>
<path d="M8069 6664 c12 -15 21 -31 21 -36 0 -17 29 -38 57 -42 15 -2 20 -1
11 1 -10 2 -18 9 -18 14 0 5 -6 9 -13 9 -7 0 -23 18 -36 40 -12 22 -27 40 -32
40 -6 0 -1 -12 10 -26z"/>
<path d="M7544 6667 c3 -10 6 -32 6 -48 0 -18 4 -28 10 -24 15 9 11 47 -7 70
-14 18 -15 18 -9 2z"/>
<path d="M6730 6650 c-13 -8 -12 -10 3 -10 9 0 17 5 17 10 0 12 -1 12 -20 0z"/>
<path d="M7070 6649 c0 -4 16 -7 35 -7 19 0 32 4 29 9 -6 10 -64 8 -64 -2z"/>
<path d="M1467 6622 c10 -18 29 -43 42 -55 l25 -22 -22 30 c-13 17 -32 41 -43
55 l-20 25 18 -33z"/>
<path d="M7018 6633 c7 -3 16 -2 19 1 4 3 -2 6 -13 5 -11 0 -14 -3 -6 -6z"/>
<path d="M7158 6633 c6 -2 18 -2 25 0 6 3 1 5 -13 5 -14 0 -19 -2 -12 -5z"/>
<path d="M5800 6618 c0 -7 4 -18 8 -23 12 -17 121 -95 132 -95 6 0 16 11 22
25 9 21 8 28 -7 45 -19 21 -83 46 -92 36 -4 -3 1 -6 10 -6 10 0 17 -7 17 -15
0 -8 -5 -14 -12 -12 -19 3 -36 21 -31 31 6 9 -15 26 -34 26 -7 0 -13 -6 -13
-12z"/>
<path d="M7200 6619 c0 -5 5 -7 10 -4 6 3 10 3 10 -2 0 -9 62 -53 74 -53 4 0
-13 16 -38 35 -50 38 -56 41 -56 24z"/>
<path d="M6898 6608 c5 -5 16 -8 23 -6 8 3 3 7 -10 11 -17 4 -21 3 -13 -5z"/>
<path d="M850 6571 c0 -23 5 -41 10 -41 6 0 10 15 10 34 0 19 -4 38 -10 41 -6
4 -10 -10 -10 -34z"/>
<path d="M6251 6543 c-6 -32 -16 -92 -21 -133 -10 -73 -35 -190 -47 -220 -11
-26 -14 -43 -28 -145 -7 -55 -16 -108 -20 -117 -4 -10 -3 -18 3 -18 5 0 15 27
21 60 7 33 16 62 21 65 19 12 104 23 114 14 57 -45 80 -61 138 -92 37 -20 75
-41 85 -46 10 -5 41 -20 68 -33 28 -12 66 -32 85 -44 80 -48 150 -51 150 -6 1
16 1 16 11 0 5 -10 15 -18 21 -18 7 0 6 6 -2 15 -21 25 -2 30 23 7 13 -12 26
-22 30 -22 4 0 26 -9 50 -19 69 -31 82 -34 67 -16 -6 8 -27 17 -46 21 -18 3
-38 12 -45 20 -6 8 -17 14 -23 14 -21 0 -86 75 -86 98 0 13 5 43 11 67 6 25 8
53 4 62 -10 24 -33 -101 -34 -185 l-1 -64 -32 7 c-18 4 -46 14 -63 22 -16 8
-79 40 -140 71 -120 60 -205 112 -247 150 -24 22 -31 24 -53 14 -35 -16 -84
-15 -91 2 -3 8 10 61 29 117 25 74 38 138 47 224 6 66 16 130 21 143 11 29 11
42 0 42 -5 0 -14 -26 -20 -57z"/>
<path d="M6660 6576 c0 -9 5 -16 10 -16 6 0 10 4 10 9 0 6 -4 13 -10 16 -5 3
-10 -1 -10 -9z"/>
<path d="M6431 6553 c2 -16 7 -33 12 -40 5 -7 1 -14 -13 -18 -11 -3 -18 -11
-14 -16 3 -6 13 -8 23 -5 11 4 10 2 -4 -10 -20 -16 -20 -16 2 -11 15 3 20 1
17 -8 -7 -17 -71 -15 -71 2 0 10 3 10 15 1 12 -10 14 -9 10 7 -2 11 -10 19
-16 18 -7 -2 -12 1 -12 6 0 5 7 11 15 13 12 2 11 6 -6 17 l-22 13 6 -82 c6
-93 15 -110 42 -80 16 17 17 25 7 40 -6 11 -8 22 -3 25 5 3 11 0 13 -7 6 -17
58 32 58 55 0 10 -9 30 -20 44 -11 14 -20 34 -20 44 0 11 -5 19 -11 19 -6 0
-9 -12 -8 -27z"/>
<path d="M7428 6556 c-4 -17 -1 -23 9 -19 15 6 18 29 4 37 -5 3 -11 -5 -13
-18z"/>
<path d="M7310 6551 c0 -5 7 -12 16 -15 24 -9 27 -7 10 9 -17 17 -26 19 -26 6z"/>
<path d="M7515 6550 c-3 -5 -1 -10 4 -10 6 0 11 5 11 10 0 6 -2 10 -4 10 -3 0
-8 -4 -11 -10z"/>
<path d="M6681 6534 c0 -11 3 -14 6 -6 3 7 2 16 -1 19 -3 4 -6 -2 -5 -13z"/>
<path d="M7900 6530 c0 -15 40 -49 58 -50 7 0 22 -16 33 -35 20 -34 21 -34 46
-18 l24 16 -28 12 c-15 7 -34 19 -42 28 -7 10 -19 17 -26 17 -7 0 -24 9 -39
21 -14 11 -26 15 -26 9z"/>
<path d="M6406 6522 c-3 -6 -1 -14 5 -17 15 -10 25 3 12 16 -7 7 -13 7 -17 1z"/>
<path d="M7370 6520 c0 -5 7 -10 15 -10 8 0 15 5 15 10 0 6 -7 10 -15 10 -8 0
-15 -4 -15 -10z"/>
<path d="M3910 6499 c-65 -13 -154 -54 -200 -93 -34 -29 -88 -66 -96 -66 -8 0
-87 -64 -126 -102 -16 -16 -32 -28 -36 -28 -4 0 -13 -9 -20 -21 -26 -41 19
-15 76 44 30 31 59 57 64 57 5 0 16 6 23 13 30 26 44 37 50 37 7 0 68 42 75
52 3 4 38 23 78 43 62 30 134 51 242 68 14 2 0 4 -30 5 -30 0 -75 -4 -100 -9z"/>
<path d="M877 6440 c3 -36 9 -70 14 -76 5 -6 8 -22 7 -34 -2 -13 2 -25 8 -27
15 -5 3 87 -16 132 -5 11 -11 31 -14 45 -2 14 -2 -4 1 -40z"/>
<path d="M8160 6490 c0 -5 6 -10 14 -10 8 0 18 5 21 10 3 6 -3 10 -14 10 -12
0 -21 -4 -21 -10z"/>
<path d="M6681 6474 c0 -11 3 -14 6 -6 3 7 2 16 -1 19 -3 4 -6 -2 -5 -13z"/>
<path d="M8091 6470 c-13 -11 -22 -21 -20 -21 2 -1 18 -2 34 -4 17 -1 30 -6
29 -11 -1 -13 55 -64 61 -55 2 5 -9 20 -25 35 -24 21 -29 32 -24 51 5 20 2 25
-12 25 -11 -1 -30 -10 -43 -20z"/>
<path d="M1687 6370 c29 -30 54 -52 56 -50 3 3 -21 27 -52 54 l-56 49 52 -53z"/>
<path d="M7945 6390 c-3 -5 -2 -10 4 -10 5 0 13 5 16 10 3 6 2 10 -4 10 -5 0
-13 -4 -16 -10z"/>
<path d="M5541 6373 c-1 -6 4 -15 9 -18 6 -4 7 -11 4 -17 -6 -10 41 -58 56
-58 4 0 23 -14 41 -30 19 -17 44 -33 57 -36 12 -3 22 -10 22 -15 0 -5 4 -9 10
-9 12 0 60 -48 60 -61 0 -11 43 -71 70 -99 9 -9 34 -26 55 -39 22 -13 64 -39
93 -58 29 -19 58 -33 65 -30 7 2 -4 12 -23 22 -19 10 -56 35 -81 57 -25 21
-50 38 -55 38 -18 0 -75 63 -80 89 -3 14 -11 33 -17 41 -19 24 -72 58 -101 66
-14 3 -26 10 -26 15 0 5 -5 9 -12 9 -6 0 -18 6 -27 14 -44 39 -97 93 -108 111
-6 11 -12 15 -12 8z"/>
<path d="M8204 6275 c0 -49 1 -71 3 -48 2 23 2 64 0 90 -2 26 -3 8 -3 -42z"/>
<path d="M7989 6319 c0 -13 -2 -33 -4 -43 -2 -11 2 -30 8 -42 11 -20 12 -15
10 37 -2 60 -12 96 -14 48z"/>
<path d="M7910 6296 c0 -8 4 -17 9 -20 5 -4 7 3 4 14 -6 23 -13 26 -13 6z"/>
<path d="M6758 6293 c7 -3 16 -2 19 1 4 3 -2 6 -13 5 -11 0 -14 -3 -6 -6z"/>
<path d="M910 6265 c0 -14 5 -25 10 -25 6 0 10 11 10 25 0 14 -4 25 -10 25 -5
0 -10 -11 -10 -25z"/>
<path d="M6865 6272 c-6 -4 -11 -36 -13 -71 -2 -35 -7 -71 -11 -80 -5 -9 -5
-25 -1 -36 7 -17 9 -18 14 -4 4 9 6 20 5 25 -1 5 1 25 4 44 4 19 9 49 11 67 2
17 7 36 10 42 8 12 -7 22 -19 13z"/>
<path d="M6990 6251 c0 -10 24 -21 48 -21 11 0 6 6 -12 15 -33 18 -36 18 -36
6z"/>
<path d="M7090 6250 c-11 -7 -5 -10 23 -10 23 0 36 4 32 10 -8 13 -35 13 -55
0z"/>
<path d="M6485 6234 c35 -34 92 -64 108 -58 21 8 10 34 -13 34 -10 0 -25 7
-34 15 -8 8 -30 18 -48 21 -33 7 -33 7 -13 -12z"/>
<path d="M7170 6241 c0 -8 52 -22 58 -16 2 1 -11 7 -27 13 -17 6 -31 7 -31 3z"/>
<path d="M928 6214 c-3 -12 -2 -28 3 -35 12 -20 16 -8 9 26 -5 27 -6 28 -12 9z"/>
<path d="M7252 6165 c0 -16 2 -22 5 -12 2 9 2 23 0 30 -3 6 -5 -1 -5 -18z"/>
<path d="M8043 6176 c14 -14 21 -16 30 -7 8 8 8 11 0 11 -6 0 -20 3 -30 7 -17
7 -17 6 0 -11z"/>
<path d="M1756 6144 c-9 -20 -15 -38 -13 -41 3 -2 12 13 22 32 9 20 15 38 13
41 -3 2 -12 -13 -22 -32z"/>
<path d="M8151 6170 c-19 -5 -40 -6 -47 -3 -6 2 -15 0 -19 -6 -10 -17 77 -13
99 4 22 16 18 17 -33 5z"/>
<path d="M940 6135 c1 -17 7 -48 15 -70 8 -22 17 -59 21 -82 3 -24 10 -43 14
-43 4 0 11 -20 14 -45 4 -25 14 -57 22 -73 7 -15 14 -35 14 -45 0 -9 4 -25 10
-35 5 -9 21 -53 36 -97 26 -81 47 -136 64 -167 6 -10 10 -23 10 -28 0 -6 9
-32 21 -58 78 -179 151 -334 160 -342 4 -3 10 -16 14 -30 4 -14 10 -27 14 -30
3 -3 23 -39 45 -80 74 -143 232 -401 308 -502 7 -9 20 -26 28 -39 21 -31 150
-200 163 -215 7 -7 23 -27 37 -45 45 -60 225 -262 314 -352 73 -75 89 -86 103
-77 17 11 17 11 -1 6 -13 -5 -17 -2 -12 9 3 8 2 14 -2 12 -11 -3 -54 30 -45
35 4 3 4 4 -2 3 -13 -3 -56 41 -48 49 4 3 -2 6 -11 6 -12 0 -16 5 -12 15 3 8
2 14 -2 12 -4 -1 -28 19 -52 45 -128 133 -129 135 -329 398 -165 217 -394 570
-394 606 0 8 -4 14 -9 14 -10 0 -183 354 -223 455 -15 39 -36 88 -46 110 -18
40 -26 62 -70 185 -12 36 -26 74 -30 85 -34 83 -89 266 -111 370 -13 60 -28
82 -28 40z"/>
<path d="M7031 6143 c-12 -24 -9 -65 5 -70 6 -2 19 8 28 22 13 19 14 30 6 45
-13 25 -26 25 -39 3z m29 -34 c0 -5 -4 -9 -10 -9 -5 0 -10 7 -10 16 0 8 5 12
10 9 6 -3 10 -10 10 -16z"/>
<path d="M3410 6096 c0 -8 4 -17 8 -20 4 -2 8 4 8 15 0 10 -4 19 -8 19 -4 0
-8 -6 -8 -14z"/>
<path d="M7231 6094 c0 -11 3 -14 6 -6 3 7 2 16 -1 19 -3 4 -6 -2 -5 -13z"/>
<path d="M7221 6053 c0 -13 -5 -23 -11 -23 -5 0 -10 -5 -10 -12 0 -8 6 -7 16
4 9 8 14 24 11 34 -4 16 -5 15 -6 -3z"/>
<path d="M9929 6038 c0 -18 -2 -40 -3 -48 -1 -8 1 -28 5 -45 4 -21 7 -6 8 48
0 42 -1 77 -4 77 -3 0 -5 -15 -6 -32z"/>
<path d="M1716 6052 c-9 -16 -26 -62 -21 -62 6 0 35 63 31 67 -2 3 -7 0 -10
-5z"/>
<path d="M3402 6030 c0 -14 2 -19 5 -12 2 6 2 18 0 25 -3 6 -5 1 -5 -13z"/>
<path d="M7182 5984 c-7 -7 -15 -27 -19 -44 -3 -17 -10 -33 -14 -36 -12 -7
-11 -24 1 -24 6 0 10 5 10 11 0 5 9 31 21 56 22 48 22 60 1 37z"/>
<path d="M1680 5965 c-6 -8 -10 -19 -8 -24 1 -6 8 1 15 14 13 28 11 31 -7 10z"/>
<path d="M3371 5954 c0 -11 3 -14 6 -6 3 7 2 16 -1 19 -3 4 -6 -2 -5 -13z"/>
<path d="M3310 5849 c-7 -11 -10 -23 -7 -25 2 -2 9 7 15 21 14 30 7 33 -8 4z"/>
<path d="M9943 5753 c1 -59 -2 -114 -6 -120 -6 -9 -3 -11 8 -7 13 5 15 24 14
115 0 60 -5 112 -10 114 -5 3 -8 -43 -6 -102z"/>
<path d="M3265 5794 c-11 -13 -35 -31 -52 -41 -30 -16 -33 -21 -31 -63 1 -43
2 -44 5 -7 3 24 9 37 19 37 9 0 12 5 8 12 -5 8 -2 9 9 5 11 -4 17 -1 17 7 0 7
14 25 31 39 17 14 27 27 22 30 -4 2 -17 -6 -28 -19z"/>
<path d="M2234 5754 c-15 -33 -31 -68 -35 -79 -4 -11 -22 -54 -39 -95 -45
-108 -150 -386 -150 -396 1 -18 31 48 74 163 42 113 53 141 81 208 7 17 18 41
23 55 6 14 27 63 47 109 41 95 40 124 -1 35z"/>
<path d="M7958 5653 c6 -2 18 -2 25 0 6 3 1 5 -13 5 -14 0 -19 -2 -12 -5z"/>
<path d="M8005 5640 c3 -5 8 -10 11 -10 2 0 4 5 4 10 0 6 -5 10 -11 10 -5 0
-7 -4 -4 -10z"/>
<path d="M7013 5604 c4 -22 7 -50 7 -63 0 -38 18 -13 26 36 5 36 3 43 -16 53
-22 12 -23 11 -17 -26z"/>
<path d="M3164 5619 c-3 -6 -1 -16 5 -22 8 -8 11 -5 11 11 0 24 -5 28 -16 11z"/>
<path d="M8035 5620 c3 -5 8 -10 11 -10 2 0 4 5 4 10 0 6 -5 10 -11 10 -5 0
-7 -4 -4 -10z"/>
<path d="M9949 5608 c-1 -7 -2 -76 -4 -153 -1 -77 -6 -162 -10 -190 -4 -27 -9
-69 -10 -93 -1 -24 -6 -47 -11 -50 -5 -4 -11 -18 -12 -32 -2 -14 -7 -29 -12
-35 -4 -5 -10 -50 -14 -100 -3 -49 -8 -106 -11 -125 -2 -19 -7 -62 -10 -95 -8
-73 -7 -66 -44 -242 -16 -79 -37 -169 -46 -200 -30 -101 -93 -295 -120 -368
-36 -97 -37 -100 -33 -101 2 -1 -4 -10 -13 -20 -8 -11 -24 -39 -34 -64 -11
-25 -27 -52 -37 -61 -10 -9 -18 -21 -18 -27 0 -20 -148 -157 -275 -255 -5 -4
-20 -16 -33 -26 -12 -10 -38 -29 -57 -42 -19 -13 -35 -27 -35 -31 0 -5 -6 -8
-13 -8 -7 0 -32 -16 -54 -35 -23 -19 -46 -35 -51 -35 -6 0 -12 -3 -14 -7 -3
-8 -70 -55 -205 -146 -43 -28 -80 -55 -83 -58 -3 -3 -15 -9 -27 -13 -13 -4
-23 -11 -23 -16 0 -4 -12 -13 -27 -19 -33 -13 -88 -46 -122 -72 -13 -10 -28
-19 -32 -19 -5 0 -39 -19 -76 -41 -84 -52 -302 -157 -425 -205 -27 -11 -48
-22 -48 -26 0 -5 -10 -8 -23 -8 -12 0 -39 -9 -60 -20 -20 -11 -44 -20 -52 -20
-8 0 -15 -5 -15 -11 0 -6 -7 -9 -15 -6 -8 4 -17 2 -20 -3 -4 -6 -16 -10 -28
-10 -13 0 -31 -6 -42 -14 -11 -7 -39 -17 -62 -21 -24 -4 -43 -11 -43 -16 0 -5
-3 -8 -7 -7 -10 2 -75 -13 -88 -20 -5 -4 -14 -7 -20 -8 -5 -1 -48 -12 -95 -24
-398 -101 -850 -180 -1027 -180 -28 0 -55 -4 -58 -10 -12 -20 255 3 515 44
171 27 399 74 422 86 10 6 27 10 38 10 10 0 39 6 62 14 24 8 77 24 118 36 41
12 84 25 95 30 11 4 61 20 110 35 50 15 94 31 100 36 5 5 15 9 23 9 13 0 89
31 124 50 10 6 23 10 31 10 7 0 29 9 50 20 20 11 44 20 52 20 8 0 15 5 15 10
0 6 5 10 11 10 12 0 35 10 169 72 251 116 743 420 915 565 6 5 51 40 100 78
242 187 324 267 374 368 23 45 41 90 41 99 0 9 4 19 9 22 4 3 18 34 31 68 12
35 29 77 36 95 8 17 14 37 14 45 0 8 3 18 8 22 4 4 7 11 7 14 0 4 10 39 22 77
47 151 63 209 63 225 0 9 3 20 8 24 4 4 13 35 20 69 67 317 81 412 112 762 10
111 13 375 5 375 -3 0 -5 -6 -6 -12z"/>
<path d="M3150 5522 c0 -47 24 -112 43 -112 4 0 1 10 -7 23 -9 12 -18 47 -22
77 -8 71 -14 76 -14 12z"/>
<path d="M6940 5565 c0 -3 4 -13 9 -23 22 -42 40 -90 46 -127 10 -53 45 -168
56 -179 5 -6 9 -25 9 -42 0 -18 5 -36 10 -39 13 -8 13 69 1 93 -23 41 -40 84
-46 114 -19 89 -63 208 -77 208 -5 0 -8 -2 -8 -5z"/>
<path d="M7131 5556 c-2 -18 22 -86 31 -86 4 0 8 -5 8 -11 0 -9 15 -45 56
-136 8 -17 14 -35 14 -40 0 -4 20 -48 45 -98 26 -52 45 -104 45 -123 0 -20 4
-31 10 -27 12 8 13 52 1 59 -4 3 -11 19 -14 35 -3 15 -24 67 -46 115 -23 47
-41 88 -41 91 0 2 -11 29 -25 59 -14 30 -25 60 -25 65 0 6 -4 11 -10 11 -5 0
-10 9 -10 19 0 11 -6 26 -13 33 -8 7 -16 20 -20 28 -3 8 -6 11 -6 6z"/>
<path d="M8030 5500 c0 -18 4 -29 10 -25 6 3 10 15 10 25 0 10 -4 22 -10 25
-6 4 -10 -7 -10 -25z"/>
<path d="M8120 5516 c0 -2 7 -9 15 -16 13 -11 14 -10 9 4 -5 14 -24 23 -24 12z"/>
<path d="M7937 5469 c4 -13 8 -18 11 -10 2 7 -1 18 -6 23 -8 8 -9 4 -5 -13z"/>
<path d="M8162 5456 c7 -8 15 -12 17 -11 5 6 -10 25 -20 25 -5 0 -4 -6 3 -14z"/>
<path d="M2823 5438 c-5 -7 -20 -38 -32 -68 -12 -30 -26 -64 -30 -75 -5 -11
-16 -37 -25 -58 -9 -21 -16 -42 -16 -48 0 -6 -6 -25 -14 -42 -8 -18 -24 -63
-36 -102 -12 -38 -26 -79 -31 -90 -12 -26 -49 -147 -49 -159 0 -29 23 24 63
144 40 121 80 229 161 443 25 66 28 79 9 55z"/>
<path d="M7950 5436 c0 -2 7 -9 15 -16 13 -11 14 -10 9 4 -5 14 -24 23 -24 12z"/>
<path d="M8383 5423 c9 -2 23 -2 30 0 6 3 -1 5 -18 5 -16 0 -22 -2 -12 -5z"/>
<path d="M8006 5391 c4 -9 7 -29 7 -45 0 -28 1 -28 13 -10 7 10 17 24 22 29 4
6 11 18 15 27 5 15 0 17 -29 16 -28 -1 -33 -4 -28 -17z"/>
<path d="M8438 5399 c6 -7 12 -21 12 -32 0 -10 4 -16 9 -13 14 9 1 44 -17 51
-14 5 -15 4 -4 -6z"/>
<path d="M8290 5380 c0 -5 5 -10 10 -10 6 0 10 5 10 10 0 6 -4 10 -10 10 -5 0
-10 -4 -10 -10z"/>
<path d="M8863 5363 c9 -2 23 -2 30 0 6 3 -1 5 -18 5 -16 0 -22 -2 -12 -5z"/>
<path d="M8810 5348 c0 -4 4 -8 9 -8 6 0 12 4 15 8 3 5 -1 9 -9 9 -8 0 -15 -4
-15 -9z"/>
<path d="M8426 5331 c-3 -5 -21 -12 -39 -15 -23 -4 -38 -15 -45 -32 -16 -33
-15 -39 3 -24 8 6 20 8 27 4 11 -6 11 -5 0 8 -16 20 -8 26 63 50 39 13 44 17
23 17 -15 1 -29 -3 -32 -8z"/>
<path d="M8768 5333 c7 -3 16 -2 19 1 4 3 -2 6 -13 5 -11 0 -14 -3 -6 -6z"/>
<path d="M8498 5318 c9 -9 15 -9 24 0 9 9 7 12 -12 12 -19 0 -21 -3 -12 -12z"/>
<path d="M8695 5320 c3 -5 8 -10 11 -10 2 0 4 5 4 10 0 6 -5 10 -11 10 -5 0
-7 -4 -4 -10z"/>
<path d="M8618 5303 c7 -3 16 -2 19 1 4 3 -2 6 -13 5 -11 0 -14 -3 -6 -6z"/>
<path d="M8581 5228 c1 -40 4 -84 9 -98 4 -15 7 14 7 73 -1 53 -5 97 -9 97 -4
0 -8 -33 -7 -72z"/>
<path d="M8087 5272 l-39 -17 29 -11 c25 -9 33 -8 52 7 12 10 20 23 16 29 -8
13 -13 13 -58 -8z"/>
<path d="M8990 5261 c0 -6 4 -13 10 -16 6 -3 7 1 4 9 -7 18 -14 21 -14 7z"/>
<path d="M1986 5161 c5 -5 48 -38 96 -73 180 -132 276 -198 286 -198 6 0 12
-4 14 -8 4 -11 147 -96 152 -91 3 2 -35 28 -82 58 -102 64 -193 122 -207 134
-27 21 -145 106 -184 132 -24 16 -45 35 -48 42 -3 7 -12 13 -21 13 -10 0 -12
-3 -6 -9z"/>
<path d="M3258 5164 c-14 -14 -9 -112 7 -128 8 -8 15 -19 15 -25 0 -5 6 -16
13 -23 6 -7 21 -30 31 -51 11 -20 21 -35 23 -33 2 2 -13 35 -33 72 -28 51 -39
86 -43 132 -3 35 -9 60 -13 56z"/>
<path d="M8158 5153 c7 -3 16 -2 19 1 4 3 -2 6 -13 5 -11 0 -14 -3 -6 -6z"/>
<path d="M8208 5153 c7 -3 16 -2 19 1 4 3 -2 6 -13 5 -11 0 -14 -3 -6 -6z"/>
<path d="M7081 5127 c-1 -19 18 -58 34 -69 25 -19 31 -5 8 20 -14 15 -29 36
-34 47 -7 17 -8 18 -8 2z"/>
<path d="M8534 5089 c-4 -8 -3 -9 5 -5 6 4 19 2 27 -5 12 -10 35 -6 23 5 -13
12 -48 15 -55 5z"/>
<path d="M9077 5070 c-3 -11 -1 -23 4 -26 5 -3 9 6 9 20 0 31 -6 34 -13 6z"/>
<path d="M9881 5074 c0 -11 3 -14 6 -6 3 7 2 16 -1 19 -3 4 -6 -2 -5 -13z"/>
<path d="M9111 5054 c0 -11 3 -14 6 -6 3 7 2 16 -1 19 -3 4 -6 -2 -5 -13z"/>
<path d="M9191 5044 c0 -11 3 -14 6 -6 3 7 2 16 -1 19 -3 4 -6 -2 -5 -13z"/>
<path d="M7156 5024 c-3 -9 -6 -27 -6 -42 0 -31 15 -19 24 20 7 29 -8 48 -18
22z"/>
<path d="M7320 5007 c0 -10 9 -38 21 -63 30 -67 19 -75 -95 -72 l-91 3 -7 35
-6 35 1 -40 2 -40 93 -3 94 -3 -2 -82 c-5 -153 0 -243 10 -227 6 8 9 80 9 161
-1 80 2 153 7 162 9 15 13 14 37 -9 15 -13 27 -22 27 -18 0 4 -11 17 -24 29
-14 13 -30 42 -37 66 -7 24 -19 53 -26 64 -12 18 -13 18 -13 2z"/>
<path d="M9072 4998 c-7 -17 -22 -30 -39 -34 -15 -3 -41 -10 -58 -14 -37 -10
-256 -47 -345 -57 l-65 -8 -2 -135 c-2 -74 -7 -166 -13 -205 -5 -38 -14 -124
-20 -190 -14 -162 -26 -244 -40 -260 -7 -8 -9 -19 -5 -25 5 -8 11 -5 20 6 8
12 33 20 71 25 102 12 257 39 314 54 l55 15 -55 -6 c-30 -3 -82 -11 -115 -19
-60 -14 -205 -35 -238 -35 -19 0 -19 13 9 227 8 61 18 200 23 308 6 154 11
200 23 211 9 10 57 21 119 30 121 17 289 49 339 66 34 11 71 38 51 38 -5 0
-11 8 -14 18 -3 13 -6 11 -15 -10z"/>
<path d="M8554 4979 c-19 -22 -19 -22 4 -8 12 8 22 17 22 21 0 12 -6 9 -26
-13z"/>
<path d="M3350 4888 c0 -2 7 -21 16 -43 15 -39 15 -39 9 -6 -3 18 -5 37 -5 42
0 5 -4 9 -10 9 -5 0 -10 -1 -10 -2z"/>
<path d="M7421 4804 c0 -11 3 -14 6 -6 3 7 2 16 -1 19 -3 4 -6 -2 -5 -13z"/>
<path d="M3322 4703 c-17 -54 -34 -114 -37 -133 -4 -19 -11 -39 -15 -45 -4 -5
-10 -27 -14 -47 -4 -21 -11 -40 -16 -43 -10 -6 -269 125 -460 234 -36 21 -91
50 -123 66 -32 16 -60 33 -63 37 -3 4 -12 8 -20 8 -25 0 -5 -19 44 -44 26 -12
90 -46 142 -76 92 -51 173 -94 368 -195 50 -26 92 -52 92 -56 0 -5 7 -9 17 -9
9 0 49 -16 90 -35 41 -19 75 -35 77 -35 2 0 47 -20 99 -45 52 -25 144 -65 204
-90 59 -26 122 -53 140 -61 17 -8 35 -14 40 -14 4 0 20 -10 36 -23 26 -21 27
-23 11 -52 -17 -33 -31 -74 -64 -185 -12 -41 -25 -86 -30 -100 -5 -14 -18 -59
-30 -100 -11 -41 -29 -104 -40 -139 -11 -35 -18 -66 -15 -69 9 -9 10 -5 85
248 12 41 34 113 49 160 15 47 36 113 47 147 10 35 24 65 30 67 9 3 278 -91
349 -123 11 -5 49 -19 85 -32 36 -13 76 -29 90 -36 14 -7 30 -13 36 -13 7 0
25 -7 40 -15 16 -8 37 -15 46 -15 22 0 25 -17 24 -140 -1 -71 -8 -123 -20
-160 -29 -90 -83 -266 -98 -325 -14 -53 -25 -66 -46 -55 -31 16 -104 41 -109
37 -6 -7 124 -57 146 -57 14 0 18 5 14 20 -5 18 20 105 87 310 32 94 38 135
44 262 4 81 13 112 40 145 27 33 32 40 49 71 10 17 14 32 8 32 -5 0 -13 -9
-16 -20 -3 -11 -10 -20 -15 -20 -4 0 -11 -10 -14 -22 -3 -13 -17 -36 -31 -52
-24 -30 -24 -30 -57 -13 -37 18 -112 47 -425 163 -230 85 -227 82 -199 146 8
18 36 101 62 183 26 83 49 153 51 158 2 4 -2 7 -10 7 -9 0 -17 -14 -22 -36 -3
-20 -10 -44 -15 -53 -12 -23 -45 -124 -71 -220 -13 -46 -29 -85 -35 -88 -6 -2
-36 8 -65 22 -30 14 -103 47 -164 72 -60 25 -139 59 -175 75 -145 67 -217 101
-248 115 -40 19 -49 36 -34 66 12 24 25 69 47 157 21 83 43 159 50 170 3 6 2
10 -3 10 -5 0 -23 -44 -40 -97z"/>
<path d="M7436 4772 c-4 -7 -3 -18 2 -25 5 -7 12 -21 14 -32 2 -11 6 -15 9
-10 4 6 1 26 -6 44 -7 23 -14 31 -19 23z"/>
<path d="M8380 4740 c-6 -11 -8 -20 -6 -20 3 0 10 9 16 20 6 11 8 20 6 20 -3
0 -10 -9 -16 -20z"/>
<path d="M7205 4697 c8 -12 16 -32 18 -42 9 -49 29 -102 47 -125 11 -14 20
-20 20 -14 0 6 -9 23 -20 37 -12 15 -24 49 -27 77 -3 27 -9 50 -13 50 -4 0
-10 9 -13 20 -3 11 -10 20 -16 20 -7 0 -6 -8 4 -23z"/>
<path d="M8323 4691 c-17 -11 -35 -26 -40 -33 -4 -7 -33 -26 -63 -42 -49 -27
-125 -74 -202 -127 -15 -11 -32 -19 -38 -19 -5 0 -10 -3 -10 -7 0 -5 -29 -21
-65 -38 -35 -16 -65 -33 -65 -37 0 -5 -8 -8 -17 -9 -11 0 -13 -3 -6 -6 22 -8
186 79 283 151 71 53 89 64 123 77 15 6 27 15 27 20 0 5 6 9 13 9 10 1 106 80
96 80 -2 0 -18 -9 -36 -19z"/>
<path d="M7465 4681 c-4 -7 -3 -16 3 -20 5 -3 12 -15 15 -26 l5 -20 0 20 c1
33 -13 61 -23 46z"/>
<path d="M3530 4668 c0 -4 16 -8 35 -8 19 0 35 2 35 4 0 2 -16 6 -35 8 -19 2
-35 0 -35 -4z"/>
<path d="M3637 4653 c18 -9 36 -13 40 -10 9 10 3 13 -37 20 l-35 6 32 -16z"/>
<path d="M3698 4633 c7 -3 16 -2 19 1 4 3 -2 6 -13 5 -11 0 -14 -3 -6 -6z"/>
<path d="M3735 4620 c3 -5 8 -10 11 -10 2 0 4 5 4 10 0 6 -5 10 -11 10 -5 0
-7 -4 -4 -10z"/>
<path d="M3780 4600 c8 -5 20 -10 25 -10 6 0 3 5 -5 10 -8 5 -19 10 -25 10 -5
0 -3 -5 5 -10z"/>
<path d="M9047 4560 c-3 -11 -1 -20 4 -20 5 0 9 9 9 20 0 11 -2 20 -4 20 -2 0
-6 -9 -9 -20z"/>
<path d="M3894 4539 c26 -17 51 -28 54 -25 3 3 3 7 1 9 -29 17 -90 47 -96 47
-4 0 14 -14 41 -31z"/>
<path d="M7495 4517 c-4 -10 -5 -21 -1 -24 10 -10 18 4 13 24 -4 17 -4 17 -12
0z"/>
<path d="M9035 4396 c-4 -74 -5 -140 -2 -148 3 -7 6 19 7 57 1 39 5 105 8 148
4 42 4 77 1 77 -4 0 -10 -60 -14 -134z"/>
<path d="M3983 4503 c15 -2 39 -2 55 0 15 2 2 4 -28 4 -30 0 -43 -2 -27 -4z"/>
<path d="M4183 4503 c9 -2 23 -2 30 0 6 3 -1 5 -18 5 -16 0 -22 -2 -12 -5z"/>
<path d="M2491 4484 c0 -11 3 -14 6 -6 3 7 2 16 -1 19 -3 4 -6 -2 -5 -13z"/>
<path d="M4265 4490 c3 -5 10 -10 16 -10 5 0 9 5 9 10 0 6 -7 10 -16 10 -8 0
-12 -4 -9 -10z"/>
<path d="M4328 4473 c7 -3 16 -2 19 1 4 3 -2 6 -13 5 -11 0 -14 -3 -6 -6z"/>
<path d="M7482 4450 c0 -19 2 -27 5 -17 2 9 2 25 0 35 -3 9 -5 1 -5 -18z"/>
<path d="M4368 4463 c7 -3 16 -2 19 1 4 3 -2 6 -13 5 -11 0 -14 -3 -6 -6z"/>
<path d="M7310 4452 c0 -5 11 -19 25 -32 14 -13 25 -28 25 -33 0 -5 11 -23 25
-41 14 -17 29 -36 34 -41 4 -6 11 -17 14 -25 4 -12 6 -12 6 1 1 15 -113 179
-124 179 -3 0 -5 -4 -5 -8z"/>
<path d="M4452 4413 c14 -16 27 -35 30 -43 3 -9 7 -10 11 -3 7 10 -43 73 -58
73 -5 0 3 -12 17 -27z"/>
<path d="M7495 4400 c-3 -5 -2 -17 3 -26 8 -14 10 -12 14 10 5 26 -5 35 -17
16z"/>
<path d="M3208 4352 c-8 -20 -23 -64 -33 -97 -9 -33 -23 -80 -30 -105 -8 -25
-17 -63 -21 -85 -3 -22 -10 -44 -14 -50 -5 -5 -11 -32 -15 -60 -4 -27 -11 -54
-15 -60 -4 -5 -11 -30 -14 -55 l-6 -45 14 40 c8 22 19 58 24 80 11 43 62 236
87 325 8 30 22 74 31 97 21 54 14 66 -8 15z"/>
<path d="M7760 4354 c-14 -7 -33 -14 -42 -14 -10 0 -18 -4 -18 -10 0 -13 27
-13 35 -1 3 5 19 12 35 16 17 4 30 11 30 16 0 12 -9 10 -40 -7z"/>
<path d="M7501 4334 c0 -11 3 -14 6 -6 3 7 2 16 -1 19 -3 4 -6 -2 -5 -13z"/>
<path d="M7653 4318 c-18 -6 -33 -14 -33 -18 0 -4 16 -2 35 4 19 6 35 14 35
18 0 5 -1 8 -2 7 -2 -1 -18 -6 -35 -11z"/>
<path d="M7927 4229 l2 -98 -27 5 c-29 5 -161 -9 -227 -24 -59 -14 -10 -13
118 2 59 6 112 9 118 5 6 -4 8 -16 4 -28 -10 -33 10 -24 31 14 16 29 16 39 6
68 -7 18 -12 56 -12 83 0 27 -4 54 -8 61 -4 6 -6 -33 -5 -88z"/>
<path d="M4496 4292 c-5 -14 -3 -29 4 -37 14 -17 45 -21 35 -5 -4 6 -11 7 -17
4 -7 -5 -9 -2 -6 7 3 8 2 23 -2 34 -7 19 -7 19 -14 -3z"/>
<path d="M7511 4283 c-1 -33 20 -46 34 -23 4 6 10 8 15 5 5 -3 12 0 16 6 5 8
-1 10 -19 7 -19 -4 -28 0 -35 16 -10 19 -11 18 -11 -11z"/>
<path d="M7590 4290 c0 -5 5 -10 11 -10 5 0 7 5 4 10 -3 6 -8 10 -11 10 -2 0
-4 -4 -4 -10z"/>
<path d="M9178 4253 c7 -3 16 -2 19 1 4 3 -2 6 -13 5 -11 0 -14 -3 -6 -6z"/>
<path d="M4550 4239 c0 -4 7 -10 16 -13 21 -8 89 -8 81 1 -10 9 -97 21 -97 12z"/>
<path d="M7460 4229 c0 -5 5 -7 10 -4 6 3 10 8 10 11 0 2 -4 4 -10 4 -5 0 -10
-5 -10 -11z"/>
<path d="M9078 4223 c7 -3 16 -2 19 1 4 3 -2 6 -13 5 -11 0 -14 -3 -6 -6z"/>
<path d="M9010 4205 c-7 -8 -23 -15 -36 -15 -13 0 -24 -4 -24 -9 0 -11 51 -11
64 1 6 5 20 15 31 23 20 14 20 14 -1 15 -12 0 -27 -7 -34 -15z"/>
<path d="M4726 4178 c4 -7 15 -22 24 -33 29 -33 38 -77 23 -105 -7 -14 -13
-32 -12 -40 0 -8 9 5 20 29 19 39 20 49 9 85 -7 23 -19 49 -28 59 -17 20 -47
24 -36 5z"/>
<path d="M7593 4093 c9 -2 23 -2 30 0 6 3 -1 5 -18 5 -16 0 -22 -2 -12 -5z"/>
<path d="M8389 4086 c-5 -5 -115 -14 -272 -22 -70 -4 -126 -9 -123 -11 9 -9
460 17 470 27 7 7 -4 10 -30 10 -23 0 -43 -2 -45 -4z"/>
<path d="M7508 4073 c12 -2 32 -2 45 0 12 2 2 4 -23 4 -25 0 -35 -2 -22 -4z"/>
<path d="M8475 4038 c-4 -14 -23 -119 -31 -178 -4 -25 -2 -31 5 -20 5 9 15 53
21 98 6 46 14 90 17 98 3 8 2 14 -1 14 -4 0 -9 -6 -11 -12z"/>
<path d="M7886 4021 c-4 -7 -5 -15 -2 -18 9 -9 19 4 14 18 -4 11 -6 11 -12 0z"/>
<path d="M8971 3984 c0 -11 3 -14 6 -6 3 7 2 16 -1 19 -3 4 -6 -2 -5 -13z"/>
<path d="M7861 3949 c-9 -30 -9 -45 -2 -52 8 -8 11 -3 11 15 0 15 4 38 10 52
5 14 6 26 1 26 -4 0 -13 -19 -20 -41z"/>
<path d="M7817 3777 c-16 -62 -35 -137 -44 -167 -8 -30 -20 -80 -28 -110 -14
-58 -29 -104 -51 -158 -8 -18 -14 -40 -14 -49 0 -28 28 17 36 57 4 19 10 42
15 51 5 9 20 61 35 115 14 55 33 124 41 154 8 30 21 86 29 123 8 38 16 73 19
77 3 5 2 11 -2 13 -5 3 -21 -45 -36 -106z"/>
<path d="M8432 3800 c0 -14 2 -19 5 -12 2 6 2 18 0 25 -3 6 -5 1 -5 -13z"/>
<path d="M7745 3779 c-4 -6 -5 -12 -2 -15 2 -3 7 2 10 11 7 17 1 20 -8 4z"/>
<path d="M8410 3744 c0 -8 5 -12 10 -9 6 3 10 10 10 16 0 5 -4 9 -10 9 -5 0
-10 -7 -10 -16z"/>
<path d="M7620 3641 c-110 -110 -106 -124 5 -19 62 57 112 116 104 121 -2 2
-51 -44 -109 -102z"/>
<path d="M3040 3735 c0 -5 61 -36 118 -60 59 -26 33 -5 -40 30 -75 37 -78 38
-78 30z"/>
<path d="M8402 3690 c0 -14 2 -19 5 -12 2 6 2 18 0 25 -3 6 -5 1 -5 -13z"/>
<path d="M10114 3603 c-71 -92 -217 -243 -344 -354 -41 -36 -100 -88 -130
-114 -30 -27 -57 -51 -60 -54 -24 -29 -370 -289 -480 -362 -287 -190 -623
-374 -905 -498 -27 -13 -63 -28 -80 -36 -60 -26 -215 -85 -224 -85 -5 0 -22
-7 -37 -15 -16 -8 -37 -15 -46 -15 -9 0 -19 -4 -22 -9 -3 -5 -22 -12 -42 -16
-20 -3 -44 -10 -53 -15 -20 -11 -135 -45 -181 -55 -19 -4 -39 -10 -45 -14 -5
-4 -55 -18 -110 -30 -55 -13 -109 -27 -120 -32 -11 -5 -45 -13 -75 -18 -30 -5
-77 -15 -105 -21 -148 -31 -251 -47 -495 -76 -215 -25 -300 -32 -455 -39 -176
-8 -480 8 -580 29 -126 28 -136 16 -28 -35 86 -40 211 -72 408 -105 213 -35
276 -44 355 -54 99 -13 190 -35 240 -57 69 -32 121 -114 145 -233 4 -19 11
-41 16 -50 8 -16 23 -72 40 -150 13 -57 3 -146 -17 -154 -22 -8 -50 13 -74 56
-33 60 -46 63 -225 62 -175 -1 -225 -11 -359 -73 -36 -17 -67 -31 -69 -31 -3
0 -42 -21 -88 -46 -46 -26 -109 -60 -139 -77 -64 -35 -464 -273 -594 -353 -49
-31 -111 -67 -137 -80 -41 -22 -80 -53 -68 -54 2 -1 94 -3 204 -5 399 -10 879
35 1270 119 39 8 93 19 120 25 28 6 75 18 105 26 30 9 80 23 110 32 30 8 73
21 95 28 22 8 74 24 115 36 41 12 79 25 85 30 5 5 16 9 25 9 8 0 28 7 44 15
15 8 33 15 40 15 6 1 29 9 51 20 22 11 45 19 51 20 25 0 507 221 524 240 3 3
19 12 35 21 74 38 174 94 220 122 57 35 305 197 320 209 6 5 51 38 100 75 278
204 586 489 813 753 64 74 154 177 199 229 46 52 83 99 83 104 0 11 -31 2 -95
-28 -27 -13 -77 -35 -110 -50 -33 -14 -69 -30 -80 -35 -143 -64 -391 -147
-403 -135 -5 5 55 42 203 125 72 40 149 85 173 101 24 16 47 29 52 29 4 0 10
3 12 8 2 4 23 20 48 37 25 16 47 32 50 35 3 3 21 16 40 30 19 13 40 28 45 32
6 5 69 55 140 112 72 57 151 126 176 154 67 74 139 201 252 442 19 41 58 123
86 183 28 59 51 116 51 126 0 10 7 21 15 25 8 3 15 12 15 21 0 34 -32 10 -96
-72z"/>
<path d="M2360 3665 c0 -7 135 -136 230 -220 130 -115 432 -342 575 -432 102
-65 238 -146 298 -179 113 -61 429 -214 443 -214 5 0 53 -20 131 -56 17 -8 37
-14 45 -14 8 0 18 -4 24 -9 5 -5 45 -21 89 -35 44 -15 89 -31 100 -36 11 -5
36 -12 55 -16 19 -3 41 -10 50 -15 21 -11 150 -49 167 -49 7 0 21 -4 31 -10 9
-5 40 -14 67 -20 28 -6 79 -18 115 -26 111 -26 261 -54 356 -68 49 -7 95 -15
100 -19 24 -14 407 -39 398 -26 -2 3 -41 7 -86 8 -46 1 -92 4 -103 7 -11 2
-38 6 -60 9 -181 18 -678 117 -765 152 -8 3 -22 7 -30 8 -8 1 -42 10 -75 19
-33 10 -78 22 -100 27 -22 6 -47 14 -55 18 -9 5 -31 12 -50 16 -19 4 -41 11
-50 15 -8 5 -37 16 -65 25 -27 10 -63 23 -80 31 -16 7 -75 31 -130 53 -174 69
-334 144 -490 231 -49 27 -100 54 -113 60 -20 9 -129 76 -191 119 -13 9 -35
24 -50 33 -32 22 -47 32 -126 88 -34 25 -73 52 -85 60 -23 15 -140 105 -233
177 -26 21 -70 58 -97 83 -27 25 -75 67 -105 93 -30 27 -52 54 -48 59 3 7 1 8
-5 4 -6 -3 -15 2 -21 11 -6 10 -11 14 -11 8 0 -5 -7 1 -16 13 -14 20 -34 30
-34 17z"/>
<path d="M3254 3635 c36 -19 45 -19 20 0 -10 8 -26 14 -34 15 -8 0 -2 -7 14
-15z"/>
<path d="M8380 3635 c0 -8 5 -15 10 -15 6 0 10 7 10 15 0 8 -4 15 -10 15 -5 0
-10 -7 -10 -15z"/>
<path d="M8372 3580 c0 -14 2 -19 5 -12 2 6 2 18 0 25 -3 6 -5 1 -5 -13z"/>
<path d="M7481 3519 c-13 -11 -22 -21 -20 -23 2 -3 15 4 28 15 13 11 22 21 20
23 -2 3 -15 -4 -28 -15z"/>
<path d="M7420 3480 c-8 -5 -10 -10 -5 -10 6 0 17 5 25 10 8 5 11 10 5 10 -5
0 -17 -5 -25 -10z"/>
<path d="M7370 3450 c-8 -5 -10 -10 -5 -10 6 0 17 5 25 10 8 5 11 10 5 10 -5
0 -17 -5 -25 -10z"/>
<path d="M3736 3431 c-3 -5 8 -14 26 -20 43 -15 47 -14 18 9 -28 22 -36 24
-44 11z"/>
<path d="M3821 3396 c2 -2 65 -27 139 -56 74 -29 149 -58 165 -65 75 -32 175
-64 175 -56 0 5 -14 13 -32 16 -28 7 -130 45 -213 80 -16 7 -57 22 -90 35 -33
12 -75 29 -93 36 -31 13 -60 19 -51 10z"/>
<path d="M8295 3350 c4 -6 11 -8 16 -5 14 9 11 15 -7 15 -8 0 -12 -5 -9 -10z"/>
<path d="M7970 3340 l-205 -6 223 -2 c147 -1 221 1 217 8 -3 6 -12 9 -18 8 -7
-1 -104 -5 -217 -8z"/>
<path d="M7327 3323 c18 -2 50 -2 70 0 21 2 7 4 -32 4 -38 0 -55 -2 -38 -4z"/>
<path d="M7440 3322 c0 -4 17 -9 37 -10 21 -2 34 0 31 4 -10 10 -68 15 -68 6z"/>
<path d="M7672 3250 c0 -14 2 -19 5 -12 2 6 2 18 0 25 -3 6 -5 1 -5 -13z"/>
<path d="M4310 3209 c0 -5 9 -9 20 -9 11 0 20 2 20 4 0 2 -9 6 -20 9 -11 3
-20 1 -20 -4z"/>
<path d="M7641 3154 c0 -11 3 -14 6 -6 3 7 2 16 -1 19 -3 4 -6 -2 -5 -13z"/>
<path d="M4574 3125 c15 -8 36 -15 45 -14 9 0 3 6 -14 14 -41 19 -67 19 -31 0z"/>
<path d="M7620 3109 c0 -5 5 -7 10 -4 6 3 10 8 10 11 0 2 -4 4 -10 4 -5 0 -10
-5 -10 -11z"/>
<path d="M4640 3107 c7 -7 123 -37 128 -32 2 2 -5 8 -15 13 -20 11 -121 28
-113 19z"/>
<path d="M7611 3064 c0 -11 3 -14 6 -6 3 7 2 16 -1 19 -3 4 -6 -2 -5 -13z"/>
<path d="M5701 2209 c16 -10 449 -10 494 0 17 4 -91 8 -239 8 -162 1 -264 -2
-255 -8z"/>
</g>
</svg>
