<?xml version="1.0" standalone="no"?>
<!DOCTYPE svg PUBLIC "-//W3C//DTD SVG 20010904//EN"
 "http://www.w3.org/TR/2001/REC-SVG-20010904/DTD/svg10.dtd">
<svg version="1.0" xmlns="http://www.w3.org/2000/svg"
 width="641.000000pt" height="648.000000pt" viewBox="0 0 641.000000 648.000000"
 preserveAspectRatio="xMidYMid meet">

<g transform="translate(0.000000,648.000000) scale(0.100000,-0.100000)"
fill="#000000" stroke="none">
<path d="M181 4615 c-17 -53 -29 -101 -25 -107 4 -6 3 -8 -2 -5 -6 3 -20 -36
-33 -86 -12 -51 -29 -114 -36 -142 -8 -27 -16 -69 -19 -92 -2 -23 -6 -46 -9
-50 -3 -4 -7 -30 -10 -58 -3 -27 -10 -79 -15 -115 -5 -36 -9 -76 -10 -90 0
-14 -3 -50 -7 -81 -6 -45 -4 -64 10 -90 9 -19 18 -41 20 -49 3 -15 58 -140
126 -285 36 -79 142 -275 172 -320 l21 -30 -28 25 c-63 57 -250 312 -302 411
-22 43 -36 36 -29 -13 4 -23 7 -71 7 -107 0 -36 3 -70 5 -74 3 -5 6 -32 8 -60
3 -68 43 -325 55 -357 5 -14 12 -37 15 -52 12 -63 17 -86 31 -142 55 -213 191
-536 322 -766 39 -68 179 -276 235 -350 87 -113 138 -171 262 -299 362 -372
792 -644 1289 -816 l150 -52 -45 -26 c-91 -53 -181 -72 -334 -72 -145 1 -202
9 -344 51 -45 14 -86 23 -89 19 -3 -3 24 -35 62 -71 81 -77 226 -152 356 -184
112 -28 293 -36 412 -20 203 27 401 108 506 205 115 106 133 200 86 450 -15
83 -28 186 -28 231 -1 73 2 85 29 129 17 26 51 63 78 81 54 37 57 34 -73 59
-237 47 -591 170 -824 287 -833 417 -1475 1160 -1768 2042 -112 340 -164 627
-184 1031 -3 72 -7 131 -8 132 -1 2 -17 -40 -35 -92z"/>
<path d="M6310 2283 c-36 -41 -123 -128 -195 -195 -485 -450 -1059 -748 -1691
-877 -283 -58 -369 -66 -722 -66 -177 0 -322 0 -322 -1 0 0 30 -13 68 -27 102
-40 211 -65 382 -88 85 -11 171 -24 191 -30 71 -18 109 -65 135 -164 7 -27 19
-72 27 -100 10 -35 11 -58 5 -77 -12 -34 -21 -35 -38 -4 -19 37 -61 49 -165
48 -79 -1 -106 -6 -172 -31 -85 -33 -252 -124 -427 -231 -61 -38 -150 -92
-197 -121 -78 -48 -85 -55 -71 -69 13 -13 48 -15 221 -14 214 1 332 11 536 45
664 112 1289 435 1774 920 123 123 331 367 331 389 0 5 -42 -11 -92 -35 -91
-42 -259 -105 -281 -105 -6 0 36 28 94 62 127 75 260 170 371 264 77 66 89 81
150 195 71 131 125 247 130 276 2 10 6 21 11 24 12 9 26 65 18 76 -3 5 -35
-24 -71 -64z"/>
</g>
</svg>
