<?xml version="1.0" standalone="no"?>
<!DOCTYPE svg PUBLIC "-//W3C//DTD SVG 20010904//EN"
 "http://www.w3.org/TR/2001/REC-SVG-20010904/DTD/svg10.dtd">
<svg version="1.0" xmlns="http://www.w3.org/2000/svg"
 width="1017.000000pt" height="161.000000pt" viewBox="0 0 1017.000000 161.000000"
 preserveAspectRatio="xMidYMid meet">

<g transform="translate(0.000000,161.000000) scale(0.100000,-0.100000)"
fill="#000000" stroke="none">
<path d="M5096 1535 c-351 -67 -566 -336 -566 -709 0 -287 137 -524 372 -642
110 -55 199 -74 355 -74 194 0 338 34 461 110 l52 32 0 284 0 284 -230 0 -230
0 0 -85 c0 -104 2 -105 135 -105 l96 0 -3 -132 -3 -132 -69 -24 c-87 -30 -230
-40 -307 -22 -127 30 -242 114 -298 219 -44 84 -63 169 -64 286 0 203 68 347
205 436 147 94 370 90 553 -11 97 -54 113 -50 173 43 l45 71 -39 34 c-49 42
-181 107 -259 127 -88 23 -283 28 -379 10z"/>
<path d="M2150 825 l0 -705 445 0 445 0 0 105 0 105 -315 0 -315 0 0 200 0
200 245 0 245 0 0 100 0 100 -245 0 -245 0 0 195 0 195 313 2 312 3 3 103 3
102 -446 0 -445 0 0 -705z"/>
<path d="M3409 825 l-276 -705 108 0 c60 0 119 5 133 11 29 14 47 49 106 217
l44 122 295 -2 295 -3 58 -155 c35 -95 66 -162 79 -172 17 -15 42 -18 139 -18
l118 0 -137 348 c-75 191 -200 508 -276 704 l-140 358 -135 0 -135 -1 -276
-704z m421 440 c0 -9 48 -148 107 -310 58 -163 104 -298 101 -300 -3 -3 -104
-4 -225 -3 l-220 3 94 255 c52 140 101 281 110 313 15 53 33 76 33 42z"/>
<path d="M6020 825 l0 -705 415 0 415 0 0 105 0 105 -282 2 -283 3 -3 598 -2
597 -130 0 -130 0 0 -705z"/>
<path d="M7030 825 l0 -705 445 0 445 0 0 105 0 105 -310 0 -310 0 0 200 0
200 245 0 245 0 0 100 0 100 -245 0 -245 0 0 195 0 195 310 0 310 0 0 105 0
105 -445 0 -445 0 0 -705z"/>
<path d="M9235 1525 c-5 -2 -37 -11 -70 -21 -152 -44 -287 -152 -375 -300 -42
-70 -44 -117 -11 -214 41 -115 89 -190 185 -286 71 -72 108 -100 171 -132 99
-49 136 -60 250 -76 188 -25 368 21 520 134 45 33 53 45 68 99 25 89 23 244
-4 335 -86 290 -325 468 -624 465 -55 0 -104 -2 -110 -4z"/>
<path d="M80 815 l0 -695 700 0 701 0 -3 133 -3 132 -562 3 -563 2 0 425 0
425 563 2 562 3 3 133 3 132 -701 0 -700 0 0 -695z"/>
<path d="M8587 1122 c-131 -425 130 -893 561 -1003 381 -97 771 90 933 447 16
35 29 67 29 71 0 4 -21 -13 -47 -39 -108 -104 -221 -169 -370 -214 -77 -24
-105 -27 -228 -27 -123 0 -151 3 -228 27 -259 78 -449 244 -554 486 -29 67
-40 107 -70 260 l-9 45 -17 -53z"/>
<path d="M907 1144 c-4 -4 -7 -53 -7 -109 0 -88 3 -106 20 -128 27 -34 76 -43
123 -23 45 18 49 32 45 161 -2 81 -6 100 -18 100 -12 0 -15 -20 -18 -110 -3
-117 -10 -135 -56 -135 -45 0 -51 14 -56 131 -5 104 -13 133 -33 113z"/>
<path d="M1164 1137 c-2 -7 -3 -67 -2 -132 3 -105 5 -120 21 -123 15 -3 17 5
17 66 0 39 3 78 6 86 6 14 9 14 24 -4 10 -12 30 -50 46 -85 22 -54 31 -65 51
-65 l24 0 -3 133 c-3 109 -6 132 -18 132 -12 0 -16 -17 -18 -78 -4 -96 -14
-97 -62 -1 -19 38 -39 72 -45 76 -16 12 -35 9 -41 -5z"/>
<path d="M1437 1144 c-4 -4 -7 -65 -7 -136 l0 -128 25 0 26 0 -3 132 c-3 110
-6 133 -18 136 -9 1 -19 0 -23 -4z"/>
<path d="M1322 816 c1 -10 8 -17 13 -17 15 1 12 24 -3 29 -9 3 -13 -2 -10 -12z"/>
<path d="M1404 819 c-7 -12 15 -31 28 -23 4 3 8 12 8 20 0 17 -26 19 -36 3z"/>
<path d="M910 745 c0 -3 14 -64 31 -135 28 -119 33 -130 53 -130 20 0 25 8 35
58 7 31 18 70 25 87 l13 29 16 -49 c8 -28 18 -67 22 -87 5 -31 10 -38 29 -38
22 0 26 9 50 113 15 61 29 122 33 135 4 17 1 22 -14 22 -16 0 -22 -12 -32 -67
-8 -38 -19 -79 -26 -92 l-12 -24 -11 34 c-6 19 -14 48 -16 64 -14 79 -17 86
-39 83 -17 -2 -25 -16 -40 -72 -24 -92 -30 -103 -44 -74 -6 13 -17 50 -25 83
-9 42 -18 61 -30 63 -10 2 -18 1 -18 -3z"/>
<path d="M1280 651 c0 -55 5 -111 11 -124 24 -52 108 -63 158 -21 l31 26 0
109 0 109 -25 0 -25 0 0 -109 c0 -122 -6 -135 -62 -129 l-33 3 -5 115 c-5 110
-6 115 -27 118 -23 3 -23 1 -23 -97z"/>
</g>
</svg>
